<svg width="151" height="21" fill="none" xmlns="http://www.w3.org/2000/svg"><path d="M.200195.820862H16.0648V17.1512h-4.8432l-.0155-12.60479-6.16269.06209v12.5427H.200195V.820862zM25.5183.820862h6.1782l6.349 16.330338H32.8452l-1.04-2.8718H25.627l-.947 2.8563-.4967.0155h-5.0295L25.5183.820862zM26.31 10.973h4.6103l-2.2974-6.62839L26.31 10.973zM54.9967 5.21389c-.0466-.31046-.1242-.62093-.2173-.93139-.2794-.86929-1.009-1.69202-1.987-2.37504-.8848-.62092-2.9959-1.071095-4.8432-1.071095h-6.8457V17.1667h4.9364V11.656h3.3064c1.6765 0 2.9339-.6675 3.7721-1.3971.8383-.72958 1.3971-1.52126 1.661-2.39055.1087-.31047.1863-.62093.2173-.93139.0466-.31047.0621-.58988.0621-.8693.0155-.26389-.0155-.54331-.0621-.85377zm-4.7501 1.10214v.17076c-.0155.18628-.0465.35703-.0931.52778-.2484.79168-.9159 1.35051-1.7075 1.35051h-2.4372V4.2825h2.4372c.2173 0 .4191.04657.6209.12418h.0155c.357.13971.652.40361.8538.74512.0776.13971.1397.27941.2018.41912v.01552c.0776.23285.1242.4657.1242.72959h-.0156zM75.2078 2.77679C73.6244 1.06924 71.2649.199951 68.1292.199951h-.2484c-3.1356 0-5.4952.853769-7.0785 2.576839-1.5834 1.70754-2.3751 3.6945-2.3751 5.96088 0 2.28193.8072 4.26883 2.4061 5.97643 1.6144 1.7075 3.9584 2.5613 7.032 2.5613l.2484-.0311c3.1357-.0155 5.4952-.8693 7.0785-2.5613 1.5834-1.692 2.3751-3.679 2.3751-5.94533.0155-2.26638-.7762-4.25334-2.3595-5.96088zM68.1137 13.7982c-2.6855 0-4.8588-2.2353-4.8588-4.99844 0-2.76311 2.1733-4.99845 4.8588-4.99845 2.6855 0 4.8587 2.23534 4.8587 4.99845.0155 2.76314-2.1732 4.99844-4.8587 4.99844zM96.894.820883V13.286h2.2664v7.2182h-4.4707v-3.2754h-9.9192v3.2754h-4.4707V13.286c.0776 0 .1708 0 .2329-.0156.0776 0 .1552-.0155.2328-.031.6985-.1242 1.366-.4812 1.9714-1.0711.6054-.5899.9625-1.4592 1.0401-2.63895.0155-.18627.031-.37255.031-.57435v-.6054-.18628V.805359h13.086v.015524zM88.1235 8.64454c0 1.02453-.1087 1.94036-.3105 2.73206-.2173.7917-.7296 1.4281-1.5523 1.9094h5.9143V4.74823h-4.0515v3.89631zM102.42.820862h10.773V4.42222h-5.759v2.7476h5.247v3.27538h-5.247v3.0736h5.759v3.6013H102.42V.820862zM117.695.820862h4.812V6.70413h6.302V.820862h4.968V17.1512h-4.968V10.616h-6.302v6.5352h-4.812V.820862zM141.197 4.59296h-4.067V.836365H150.2V4.59296h-4.222V17.1667h-4.766V4.59296h-.015z" fill="#F00011"/></svg>