<?xml version="1.0" encoding="iso-8859-1"?>
<!-- Generator: Adobe Illustrator 19.0.0, SVG Export Plug-In . SVG Version: 6.00 Build 0)  -->
<svg version="1.1" id="Capa_1" xmlns="http://www.w3.org/2000/svg" xmlns:xlink="http://www.w3.org/1999/xlink" x="0px" y="0px"
	 viewBox="0 0 512.008 512.008" style="enable-background:new 0 0 512.008 512.008;" xml:space="preserve">
<g>
	<g>
		<path d="M507.328,356.708l-96-96.032c-4.576-4.608-11.456-5.92-17.44-3.456S384,265.54,384,272.004v48H176.672l264.8-195.136
			c0.32-0.224,0.48-0.608,0.768-0.864c0.864-0.736,1.536-1.568,2.24-2.464c0.608-0.768,1.184-1.536,1.6-2.4
			c0.448-0.896,0.736-1.856,1.024-2.848c0.288-1.056,0.544-2.048,0.64-3.168c0.064-0.352,0.256-0.704,0.256-1.12v-64
			c0-8.832-7.168-16-16-16H16c-8.832,0-16,7.168-16,16v64c0,8.832,7.168,16,16,16h255.328L6.528,323.14
			c-0.32,0.224-0.48,0.608-0.768,0.864c-0.864,0.736-1.536,1.568-2.24,2.464c-0.608,0.768-1.184,1.536-1.6,2.4
			c-0.448,0.896-0.736,1.856-1.024,2.848c-0.288,1.056-0.544,2.048-0.64,3.168C0.192,335.236,0,335.588,0,336.004v64
			c0,8.832,7.168,16,16,16h368v48c0,6.464,3.904,12.32,9.888,14.784c1.952,0.8,4.064,1.216,6.112,1.216
			c4.16,0,8.256-1.632,11.328-4.672l96-96C513.568,373.092,513.568,362.948,507.328,356.708z M32,96.004v-32h384v32H32z
			 M325.248,128.004h58.08l-260.576,192h-58.08L325.248,128.004z M416,425.38v-25.376c0-8.832-7.168-16-16-16H32v-32h368
			c8.832,0,16-7.168,16-16v-25.376l57.376,57.376L416,425.38z"/>
	</g>
</g>
<g>
</g>
<g>
</g>
<g>
</g>
<g>
</g>
<g>
</g>
<g>
</g>
<g>
</g>
<g>
</g>
<g>
</g>
<g>
</g>
<g>
</g>
<g>
</g>
<g>
</g>
<g>
</g>
<g>
</g>
</svg>
