<?xml version="1.0" encoding="iso-8859-1"?>
<!-- Generator: Adobe Illustrator 19.0.0, SVG Export Plug-In . SVG Version: 6.00 Build 0)  -->
<svg version="1.1" id="Capa_1" xmlns="http://www.w3.org/2000/svg" xmlns:xlink="http://www.w3.org/1999/xlink" x="0px" y="0px"
	 viewBox="0 0 512.024 512.024" style="enable-background:new 0 0 512.024 512.024;" xml:space="preserve">
<g>
	<g>
		<path d="M479.02,394.456c-2.336-6.272-8.32-10.432-15.008-10.432h-48v-32c0-88.224-71.776-160-160-160c-17.664,0-32-14.368-32-32
			v-32h48c6.688,0,12.672-4.16,15.008-10.464c2.336-6.272,0.512-13.344-4.608-17.696l-112-96c-6.016-5.152-14.816-5.152-20.8,0
			l-112,96c-5.088,4.352-6.944,11.424-4.608,17.696c2.336,6.304,8.32,10.464,15.008,10.464h48v32c0,88.224,71.776,160,160,160
			c17.664,0,32,14.368,32,32v32h-48c-6.688,0-12.672,4.16-15.008,10.464c-2.336,6.272-0.512,13.344,4.608,17.696l112,96
			c3.008,2.56,6.688,3.84,10.4,3.84c3.712,0,7.392-1.28,10.4-3.872l112-96C479.5,407.8,481.356,400.76,479.02,394.456z
			 M352.012,474.936l-68.736-58.912h20.736c8.832,0,16-7.168,16-16v-48c0-35.296-28.704-64-64-64c-70.592,0-128-57.408-128-128v-48
			c0-8.832-7.168-16-16-16H91.276l68.736-58.912l68.736,58.912h-20.736c-8.832,0-16,7.168-16,16v48c0,35.296,28.704,64,64,64
			c70.592,0,128,57.408,128,128v48c0,8.832,7.168,16,16,16h20.736L352.012,474.936z"/>
	</g>
</g>
<g>
</g>
<g>
</g>
<g>
</g>
<g>
</g>
<g>
</g>
<g>
</g>
<g>
</g>
<g>
</g>
<g>
</g>
<g>
</g>
<g>
</g>
<g>
</g>
<g>
</g>
<g>
</g>
<g>
</g>
</svg>
