<?xml version="1.0" encoding="iso-8859-1"?>
<!-- Generator: Adobe Illustrator 19.0.0, SVG Export Plug-In . SVG Version: 6.00 Build 0)  -->
<svg version="1.1" id="Capa_1" xmlns="http://www.w3.org/2000/svg" xmlns:xlink="http://www.w3.org/1999/xlink" x="0px" y="0px"
	 viewBox="0 0 512.008 512.008" style="enable-background:new 0 0 512.008 512.008;" xml:space="preserve">
<g>
	<g>
		<path d="M508.384,245.828L347.776,69.156c-3.04-3.264-7.296-5.152-11.776-5.152H211.84c-6.4,0-12.16,3.808-14.688,9.664
			c-2.528,5.856-1.312,12.672,3.04,17.312l95.232,101.024H16c-8.832,0-16,7.168-16,16v96c0,8.832,7.168,16,16,16h279.424
			l-95.232,101.024c-4.384,4.64-5.568,11.456-3.04,17.312s8.288,9.664,14.688,9.664H336c4.48,0,8.736-1.888,11.776-5.184
			l144.608-157.184l16-19.52C513.216,260.228,513.216,251.716,508.384,245.828z M328.992,416.004h-80.096l95.232-101.024
			c4.384-4.64,5.568-11.456,3.04-17.312c-2.528-5.856-8.288-9.664-14.688-9.664H32v-64h300.48c6.4,0,12.16-3.808,14.688-9.664
			c2.528-5.856,1.344-12.672-3.04-17.312L248.896,96.004h80.064l138.656,150.624l7.712,9.376L328.992,416.004z"/>
	</g>
</g>
<g>
</g>
<g>
</g>
<g>
</g>
<g>
</g>
<g>
</g>
<g>
</g>
<g>
</g>
<g>
</g>
<g>
</g>
<g>
</g>
<g>
</g>
<g>
</g>
<g>
</g>
<g>
</g>
<g>
</g>
</svg>
