<?xml version="1.0" encoding="iso-8859-1"?>
<!-- Generator: Adobe Illustrator 19.0.0, SVG Export Plug-In . SVG Version: 6.00 Build 0)  -->
<svg version="1.1" id="Capa_1" xmlns="http://www.w3.org/2000/svg" xmlns:xlink="http://www.w3.org/1999/xlink" x="0px" y="0px"
	 viewBox="0 0 512 512" style="enable-background:new 0 0 512 512;" xml:space="preserve">
<g>
	<g>
		<path d="M428.16,373.6l-96-112c-4.352-5.088-11.488-6.944-17.728-4.608C308.16,259.328,304,265.312,304,272v47.584
			c-83.392-4.416-153.216-43.04-180.128-95.584C152.512,168.128,229.6,128,320,128c8.832,0,16-7.168,16-16V16
			c0-8.832-7.168-16-16-16C187.648,0,80,78.944,80,176v96c0,93.12,99.104,169.536,224,175.616V496
			c0,6.688,4.16,12.672,10.432,15.008c1.824,0.672,3.68,0.992,5.568,0.992c4.608,0,9.056-1.984,12.16-5.6l96-112
			C433.28,388.416,433.28,379.584,428.16,373.6z M304,32.576V96.8c-81.792,4-152.672,37.792-191.68,87.072
			c-0.224-2.592-0.32-5.216-0.32-7.872C112,100.32,196.768,38.24,304,32.576z M336,452.736V432c0-8.832-7.168-16-16-16
			c-114.688,0-208-64.608-208-144c0-2.656,0.096-5.28,0.32-7.872C153.888,316.64,231.392,352,320,352c8.832,0,16-7.168,16-16
			v-20.736L394.944,384L336,452.736z"/>
	</g>
</g>
<g>
</g>
<g>
</g>
<g>
</g>
<g>
</g>
<g>
</g>
<g>
</g>
<g>
</g>
<g>
</g>
<g>
</g>
<g>
</g>
<g>
</g>
<g>
</g>
<g>
</g>
<g>
</g>
<g>
</g>
</svg>
