<?xml version="1.0" encoding="iso-8859-1"?>
<!-- Generator: Adobe Illustrator 19.0.0, SVG Export Plug-In . SVG Version: 6.00 Build 0)  -->
<svg version="1.1" id="Capa_1" xmlns="http://www.w3.org/2000/svg" xmlns:xlink="http://www.w3.org/1999/xlink" x="0px" y="0px"
	 viewBox="0 0 512.024 512.024" style="enable-background:new 0 0 512.024 512.024;" xml:space="preserve">
<g>
	<g>
		<path d="M378.409,99.864l-112-96c-5.984-5.152-14.848-5.152-20.8,0l-112,96c-5.088,4.352-6.944,11.424-4.608,17.696
			c2.336,6.304,8.32,10.464,15.008,10.464h48v368c0,8.832,7.168,16,16,16h96c8.832,0,16-7.168,16-16v-368h48
			c6.688,0,12.672-4.16,15.008-10.464C385.353,111.288,383.529,104.216,378.409,99.864z M304.009,96.024c-8.832,0-16,7.168-16,16
			v368h-64v-368c0-8.832-7.168-16-16-16h-20.736l68.736-58.912l68.736,58.912H304.009z"/>
	</g>
</g>
<g>
</g>
<g>
</g>
<g>
</g>
<g>
</g>
<g>
</g>
<g>
</g>
<g>
</g>
<g>
</g>
<g>
</g>
<g>
</g>
<g>
</g>
<g>
</g>
<g>
</g>
<g>
</g>
<g>
</g>
</svg>
