<?xml version="1.0" encoding="iso-8859-1"?>
<!-- Generator: Adobe Illustrator 19.0.0, SVG Export Plug-In . SVG Version: 6.00 Build 0)  -->
<svg version="1.1" id="Capa_1" xmlns="http://www.w3.org/2000/svg" xmlns:xlink="http://www.w3.org/1999/xlink" x="0px" y="0px"
	 viewBox="0 0 512.008 512.008" style="enable-background:new 0 0 512.008 512.008;" xml:space="preserve">
<g>
	<g>
		<path d="M395.332,132.68l-128-128c-6.24-6.24-16.384-6.24-22.624,0l-128,128c-4.576,4.576-5.952,11.488-3.488,17.44
			c2.464,5.952,8.32,9.888,14.784,9.888h64v208c0,8.832,7.168,16,16,16h96c8.832,0,16-7.168,16-16v-208h64
			c6.464,0,12.32-3.904,14.784-9.888S399.876,137.256,395.332,132.68z M304.004,128.008c-8.832,0-16,7.168-16,16v208h-64v-208
			c0-8.832-7.168-16-16-16h-41.376l89.376-89.376l89.376,89.376H304.004z"/>
	</g>
</g>
<g>
	<g>
		<path d="M464.004,320.008h-64c-8.832,0-16,7.168-16,16v80h-256v-80c0-8.832-7.168-16-16-16h-64c-8.832,0-16,7.168-16,16v128
			c0,26.464,21.536,48,48,48h352c26.464,0,48-21.536,48-48v-128C480.004,327.176,472.836,320.008,464.004,320.008z M448.004,464.008
			c0,8.8-7.2,16-16,16h-352c-8.8,0-16-7.2-16-16v-112h32v80c0,8.832,7.168,16,16,16h288c8.832,0,16-7.168,16-16v-80h32V464.008z"/>
	</g>
</g>
<g>
</g>
<g>
</g>
<g>
</g>
<g>
</g>
<g>
</g>
<g>
</g>
<g>
</g>
<g>
</g>
<g>
</g>
<g>
</g>
<g>
</g>
<g>
</g>
<g>
</g>
<g>
</g>
<g>
</g>
</svg>
