<?xml version="1.0" encoding="iso-8859-1"?>
<!-- Generator: Adobe Illustrator 19.0.0, SVG Export Plug-In . SVG Version: 6.00 Build 0)  -->
<svg version="1.1" id="Capa_1" xmlns="http://www.w3.org/2000/svg" xmlns:xlink="http://www.w3.org/1999/xlink" x="0px" y="0px"
	 viewBox="0 0 512.016 512.016" style="enable-background:new 0 0 512.016 512.016;" xml:space="preserve">
<g>
	<g>
		<path d="M421.096,145.552c-0.288-4.256-2.208-8.224-5.44-11.008L266.536,3.984c-6.016-5.312-15.072-5.312-21.056,0L96.36,134.544
			c-3.232,2.784-5.152,6.752-5.44,11.008c-0.288,4.256,1.152,8.416,3.968,11.584l42.24,48c5.824,6.624,15.904,7.296,22.528,1.472
			l48.352-42.336v203.744c0,8.832,7.168,16,16,16h64c8.832,0,16-7.168,16-16V164.272l48.352,42.336
			c6.624,5.824,16.704,5.152,22.528-1.472l42.24-48C419.944,153.936,421.384,149.808,421.096,145.552z M361.416,172.016
			l-62.88-55.072c-4.704-4.16-11.456-5.12-17.12-2.528c-5.728,2.592-9.408,8.288-9.408,14.56v223.04h-32v-223.04
			c0-6.272-3.68-11.968-9.408-14.56c-5.632-2.624-12.416-1.632-17.12,2.528l-62.88,55.072l-21.088-23.968L256.008,37.296
			l126.496,110.752L361.416,172.016z"/>
	</g>
</g>
<g>
	<g>
		<path d="M448.008,416.016h-384c-8.832,0-16,7.168-16,16v64c0,8.832,7.168,16,16,16h384c8.832,0,16-7.168,16-16v-64
			C464.008,423.184,456.84,416.016,448.008,416.016z M432.008,480.016h-352v-32h352V480.016z"/>
	</g>
</g>
<g>
</g>
<g>
</g>
<g>
</g>
<g>
</g>
<g>
</g>
<g>
</g>
<g>
</g>
<g>
</g>
<g>
</g>
<g>
</g>
<g>
</g>
<g>
</g>
<g>
</g>
<g>
</g>
<g>
</g>
</svg>
