<?xml version="1.0" encoding="iso-8859-1"?>
<!-- Generator: Adobe Illustrator 19.0.0, SVG Export Plug-In . SVG Version: 6.00 Build 0)  -->
<svg version="1.1" id="Capa_1" xmlns="http://www.w3.org/2000/svg" xmlns:xlink="http://www.w3.org/1999/xlink" x="0px" y="0px"
	 viewBox="0 0 512.008 512.008" style="enable-background:new 0 0 512.008 512.008;" xml:space="preserve">
<g>
	<g>
		<path d="M464.004,192.008h-112c-8.864,0-16,7.168-16,16c0,8.832,7.136,16,16,16h112v256h-416v-256h112c8.864,0,16-7.168,16-16
			c0-8.832-7.136-16-16-16h-112c-17.632,0-32,14.336-32,32v256c0,17.664,14.368,32,32,32h416c17.632,0,32-14.336,32-32v-256
			C496.004,206.344,481.636,192.008,464.004,192.008z"/>
	</g>
</g>
<g>
	<g>
		<path d="M363.332,100.68l-96-96c-6.24-6.24-16.384-6.24-22.624,0l-96,96c-4.608,4.576-5.984,11.488-3.488,17.44
			c2.464,5.984,8.32,9.888,14.784,9.888h48v240c0,8.832,7.168,16,16,16h64c8.832,0,16-7.168,16-16v-240h48
			c6.464,0,12.32-3.904,14.784-9.888C369.284,112.136,367.908,105.256,363.332,100.68z M288.004,96.008c-8.832,0-16,7.168-16,16v240
			h-32v-240c0-8.832-7.168-16-16-16h-25.376l57.376-57.376l57.376,57.376H288.004z"/>
	</g>
</g>
<g>
</g>
<g>
</g>
<g>
</g>
<g>
</g>
<g>
</g>
<g>
</g>
<g>
</g>
<g>
</g>
<g>
</g>
<g>
</g>
<g>
</g>
<g>
</g>
<g>
</g>
<g>
</g>
<g>
</g>
</svg>
