<?xml version="1.0" encoding="iso-8859-1"?>
<!-- Generator: Adobe Illustrator 19.0.0, SVG Export Plug-In . SVG Version: 6.00 Build 0)  -->
<svg version="1.1" id="Capa_1" xmlns="http://www.w3.org/2000/svg" xmlns:xlink="http://www.w3.org/1999/xlink" x="0px" y="0px"
	 viewBox="0 0 512 512" style="enable-background:new 0 0 512 512;" xml:space="preserve">
<g>
	<g>
		<path d="M425.6,455.712l-38.72-51.84c-4.864-6.496-13.792-8.352-20.768-4.32C347.424,410.304,325.984,416,304,416
			c-70.592,0-128-57.408-128-128h64c6.272,0,11.968-3.648,14.56-9.376c2.592-5.728,1.632-12.448-2.528-17.152l-112-128
			c-6.048-6.944-18.016-6.944-24.064,0l-112,128c-4.16,4.704-5.12,11.424-2.528,17.152C4.032,284.352,9.728,288,16,288h64
			c0,123.488,100.512,224,224,224c41.376,0,81.92-11.424,117.184-33.088c3.808-2.336,6.496-6.176,7.328-10.624
			C429.344,463.872,428.288,459.328,425.6,455.712z M304,480c-105.888,0-192-86.112-192-192v-16c0-8.832-7.168-16-16-16H51.264
			L128,168.32L204.736,256H160c-8.832,0-16,7.168-16,16v16c0,88.224,71.776,160,160,160c22.72,0,45.024-4.864,65.376-14.144
			l19.648,26.304C362.656,473.184,333.6,480,304,480z"/>
	</g>
</g>
<g>
	<g>
		<path d="M510.56,233.376C507.968,227.648,502.272,224,496,224h-64C432,100.512,331.488,0,208,0
			c-41.376,0-81.92,11.424-117.184,33.088c-3.808,2.336-6.496,6.208-7.36,10.624c-0.832,4.416,0.224,8.96,2.912,12.576l38.72,51.84
			c4.864,6.496,13.76,8.352,20.768,4.32C164.576,101.696,186.016,96,208,96c70.592,0,128,57.408,128,128h-64
			c-6.272,0-11.968,3.648-14.56,9.376c-2.592,5.728-1.632,12.448,2.528,17.152l112,128C375.008,382.016,379.36,384,384,384
			s8.992-2.016,12.032-5.472l112-128C512.192,245.824,513.152,239.104,510.56,233.376z M384,343.68L307.264,256H352
			c8.832,0,16-7.168,16-16v-16c0-88.224-71.776-160-160-160c-22.72,0-45.024,4.864-65.376,14.144L122.976,51.84
			C149.344,38.816,178.4,32,208,32c105.888,0,192,86.112,192,192v16c0,8.832,7.168,16,16,16h44.736L384,343.68z"/>
	</g>
</g>
<g>
</g>
<g>
</g>
<g>
</g>
<g>
</g>
<g>
</g>
<g>
</g>
<g>
</g>
<g>
</g>
<g>
</g>
<g>
</g>
<g>
</g>
<g>
</g>
<g>
</g>
<g>
</g>
<g>
</g>
</svg>
