<?xml version="1.0" encoding="iso-8859-1"?>
<!-- Generator: Adobe Illustrator 19.0.0, SVG Export Plug-In . SVG Version: 6.00 Build 0)  -->
<svg version="1.1" id="Capa_1" xmlns="http://www.w3.org/2000/svg" xmlns:xlink="http://www.w3.org/1999/xlink" x="0px" y="0px"
	 viewBox="0 0 512.024 512.024" style="enable-background:new 0 0 512.024 512.024;" xml:space="preserve">
<g>
	<g>
		<path d="M368.012,384.024h-48v-256h48c6.688,0,12.672-4.16,15.008-10.464c2.336-6.272,0.512-13.344-4.608-17.696l-112-96
			c-5.984-5.152-14.848-5.152-20.8,0l-112,96c-5.088,4.352-6.944,11.424-4.608,17.696c2.336,6.304,8.32,10.464,15.008,10.464h48v256
			h-48c-6.688,0-12.672,4.16-15.008,10.464c-2.336,6.272-0.512,13.344,4.608,17.696l112,96c2.976,2.56,6.688,3.84,10.4,3.84
			c3.712,0,7.424-1.28,10.4-3.872l112-96c5.088-4.352,6.912-11.392,4.608-17.696C380.684,388.184,374.7,384.024,368.012,384.024z
			 M256.012,474.936l-68.736-58.912h20.736c8.832,0,16-7.168,16-16v-288c0-8.832-7.168-16-16-16h-20.736l68.736-58.912
			l68.736,58.912h-20.736c-8.832,0-16,7.168-16,16v288c0,8.832,7.168,16,16,16h20.736L256.012,474.936z"/>
	</g>
</g>
<g>
</g>
<g>
</g>
<g>
</g>
<g>
</g>
<g>
</g>
<g>
</g>
<g>
</g>
<g>
</g>
<g>
</g>
<g>
</g>
<g>
</g>
<g>
</g>
<g>
</g>
<g>
</g>
<g>
</g>
</svg>
