<?xml version="1.0" encoding="iso-8859-1"?>
<!-- Generator: Adobe Illustrator 19.0.0, SVG Export Plug-In . SVG Version: 6.00 Build 0)  -->
<svg version="1.1" id="Capa_1" xmlns="http://www.w3.org/2000/svg" xmlns:xlink="http://www.w3.org/1999/xlink" x="0px" y="0px"
	 viewBox="0 0 512 512" style="enable-background:new 0 0 512 512;" xml:space="preserve">
<g>
	<g>
		<path d="M320,111.992H192v-80c0-6.304-3.712-12.032-9.504-14.624c-5.792-2.496-12.48-1.536-17.216,2.72l-160,144
			C1.952,167.16,0,171.448,0,175.992s1.952,8.832,5.28,11.904l160,144c4.736,4.256,11.456,5.248,17.216,2.72
			c5.792-2.592,9.504-8.32,9.504-14.624v-80h128c35.296,0,64,28.704,64,64c0,35.296-28.704,64-64,64H176c-8.832,0-16,7.168-16,16v96
			c0,8.832,7.168,16,16,16h144c105.888,0,192-86.112,192-192S425.888,111.992,320,111.992z M320,463.992H192v-64h128
			c52.928,0,96-43.072,96-96c0-52.928-43.072-96-96-96H176c-8.832,0-16,7.168-16,16v60.064L39.904,175.992L160,67.928v60.064
			c0,8.832,7.168,16,16,16h144c88.224,0,160,71.776,160,160S408.224,463.992,320,463.992z"/>
	</g>
</g>
<g>
</g>
<g>
</g>
<g>
</g>
<g>
</g>
<g>
</g>
<g>
</g>
<g>
</g>
<g>
</g>
<g>
</g>
<g>
</g>
<g>
</g>
<g>
</g>
<g>
</g>
<g>
</g>
<g>
</g>
</svg>
