<?xml version="1.0" encoding="iso-8859-1"?>
<!-- Generator: Adobe Illustrator 19.0.0, SVG Export Plug-In . SVG Version: 6.00 Build 0)  -->
<svg version="1.1" id="Capa_1" xmlns="http://www.w3.org/2000/svg" xmlns:xlink="http://www.w3.org/1999/xlink" x="0px" y="0px"
	 viewBox="0 0 512.024 512.024" style="enable-background:new 0 0 512.024 512.024;" xml:space="preserve">
<g>
	<g>
		<path d="M506.406,99.864l-112-96c-6.016-5.152-14.816-5.152-20.8,0l-112,96c-5.088,4.352-6.944,11.424-4.608,17.696
			c2.336,6.304,8.32,10.464,15.008,10.464h48v192h-192v-48c0-6.688-4.16-12.672-10.432-15.008
			c-6.272-2.336-13.376-0.48-17.728,4.608l-96,112c-5.12,5.984-5.12,14.816,0,20.8l96,112c3.104,3.616,7.552,5.6,12.16,5.6
			c1.888,0,3.744-0.32,5.568-0.992c6.272-2.336,10.432-8.32,10.432-15.008v-48h304c8.832,0,16-7.168,16-16v-304h48
			c6.688,0,12.672-4.16,15.008-10.464C513.35,111.288,511.526,104.216,506.406,99.864z M432.006,96.024c-8.832,0-16,7.168-16,16v304
			h-304c-8.832,0-16,7.168-16,16v20.736l-58.944-68.736l58.944-68.736v20.736c0,8.832,7.168,16,16,16h224c8.832,0,16-7.168,16-16
			v-224c0-8.832-7.168-16-16-16H315.27l68.736-58.912l68.736,58.912H432.006z"/>
	</g>
</g>
<g>
</g>
<g>
</g>
<g>
</g>
<g>
</g>
<g>
</g>
<g>
</g>
<g>
</g>
<g>
</g>
<g>
</g>
<g>
</g>
<g>
</g>
<g>
</g>
<g>
</g>
<g>
</g>
<g>
</g>
</svg>
