<?xml version="1.0" encoding="iso-8859-1"?>
<!-- Generator: Adobe Illustrator 19.0.0, SVG Export Plug-In . SVG Version: 6.00 Build 0)  -->
<svg version="1.1" id="Capa_1" xmlns="http://www.w3.org/2000/svg" xmlns:xlink="http://www.w3.org/1999/xlink" x="0px" y="0px"
	 viewBox="0 0 512.018 512.018" style="enable-background:new 0 0 512.018 512.018;" xml:space="preserve">
<g>
	<g>
		<path d="M506.406,163.861l-112-96c-6.016-5.152-14.816-5.152-20.8,0l-112,96c-3.584,3.072-5.568,7.488-5.6,12
			c-0.032-4.512-1.984-8.928-5.6-11.968l-112-96c-6.016-5.152-14.816-5.152-20.8,0l-112,96c-5.088,4.32-6.944,11.392-4.608,17.664
			c2.336,6.304,8.32,10.464,15.008,10.464h48v64c0,105.888,86.112,192,192,192s192-86.112,192-192v-64h48
			c6.688,0,12.672-4.16,15.008-10.464C513.35,175.285,511.526,168.213,506.406,163.861z M255.014,181.557
			c0.64-1.728,0.96-3.552,0.992-5.376c0.032,1.824,0.352,3.648,0.992,5.376c2.336,6.304,8.32,10.464,15.008,10.464h48v64
			c0,35.296-28.704,64-64,64c-35.296,0-64-28.704-64-64v-64h48C246.694,192.021,252.678,187.861,255.014,181.557z M432.006,160.021
			c-8.832,0-16,7.168-16,16v80c0,88.224-71.776,160-160,160s-160-71.776-160-160v-80c0-8.832-7.168-16-16-16H59.27l68.736-58.912
			l68.736,58.912h-20.736c-8.832,0-16,7.168-16,16v80c0,52.928,43.072,96,96,96c52.928,0,96-43.072,96-96v-80
			c0-8.832-7.168-16-16-16H315.27l68.736-58.912l68.736,58.912H432.006z"/>
	</g>
</g>
<g>
</g>
<g>
</g>
<g>
</g>
<g>
</g>
<g>
</g>
<g>
</g>
<g>
</g>
<g>
</g>
<g>
</g>
<g>
</g>
<g>
</g>
<g>
</g>
<g>
</g>
<g>
</g>
<g>
</g>
</svg>
