<?xml version="1.0" encoding="iso-8859-1"?>
<!-- Generator: Adobe Illustrator 19.0.0, SVG Export Plug-In . SVG Version: 6.00 Build 0)  -->
<svg version="1.1" id="Capa_1" xmlns="http://www.w3.org/2000/svg" xmlns:xlink="http://www.w3.org/1999/xlink" x="0px" y="0px"
	 viewBox="0 0 511.612 511.612" style="enable-background:new 0 0 511.612 511.612;" xml:space="preserve">
<g>
	<g>
		<path d="M433.822,126.876l-113.28-113.28c-18.048-18.112-49.632-18.144-67.744,0c-18.752,18.752-18.752,49.312,0,68.064
			l29.984,29.952h-18.976c-110.272,0-200,89.728-200,200s89.728,200,200,200h8c8.832,0,16-7.168,16-16v-64c0-8.832-7.168-16-16-16
			h-8c-57.344,0-104-46.656-104-104s46.656-104,104-104h21.216l-32.224,32.192c-18.752,18.784-18.752,49.312,0,68.064
			c17.952,17.952,50.304,17.568,67.744,0l113.312-113.28c8.864-8.896,13.952-21.152,13.952-33.696
			C447.806,148.444,442.974,136.476,433.822,126.876z M411.198,171.996l-113.312,113.28c-5.536,5.6-16.48,5.952-22.464-0.032
			c-6.176-6.176-6.176-16.64,0-22.816l59.52-59.52c4.576-4.576,5.952-11.456,3.456-17.44c-2.432-5.952-8.288-9.856-14.752-9.856
			h-59.84c-75.008,0-136,61.024-136,136c0,72.288,56.704,131.616,128,135.776v32.032c-88.928-4.192-160-77.856-160-167.808
			c0-92.64,75.36-168,168-168h57.6c6.464,0,12.32-3.904,14.784-9.888s1.088-12.864-3.456-17.44l-57.28-57.28
			c-6.144-6.176-6.144-16.64,0-22.784c6.08-6.048,16.48-6.016,22.496,0l112.96,112.96c3.136,3.328,4.896,7.488,4.896,11.712
			C415.806,164.892,414.014,169.148,411.198,171.996z"/>
	</g>
</g>
<g>
</g>
<g>
</g>
<g>
</g>
<g>
</g>
<g>
</g>
<g>
</g>
<g>
</g>
<g>
</g>
<g>
</g>
<g>
</g>
<g>
</g>
<g>
</g>
<g>
</g>
<g>
</g>
<g>
</g>
</svg>
