<?xml version="1.0" encoding="iso-8859-1"?>
<!-- Generator: Adobe Illustrator 19.0.0, SVG Export Plug-In . SVG Version: 6.00 Build 0)  -->
<svg version="1.1" id="Capa_1" xmlns="http://www.w3.org/2000/svg" xmlns:xlink="http://www.w3.org/1999/xlink" x="0px" y="0px"
	 viewBox="0 0 511.998 511.998" style="enable-background:new 0 0 511.998 511.998;" xml:space="preserve">
<g>
	<g>
		<path d="M460.129,117.598l-96-112c-4.352-5.12-11.424-6.912-17.696-4.608c-6.272,2.336-10.432,8.32-10.432,15.008v48h-144
			c-79.392,0-144,64.608-144,144v288c0,4.256,1.696,8.32,4.672,11.328s7.072,4.672,11.328,4.672h96c8.832,0,16-7.168,16-16v-288
			c0-8.832,7.168-16,16-16h144v48c0,6.688,4.16,12.672,10.464,15.008c6.272,2.304,13.344,0.48,17.696-4.608l96-112
			C465.281,132.414,465.281,123.582,460.129,117.598z M368.001,196.734v-20.736c0-8.832-7.168-16-16-16h-160
			c-26.464,0-48,21.536-48,48v272h-64v-272c0-61.76,50.272-112,112-112h160c8.832,0,16-7.168,16-16V59.262l58.912,68.736
			L368.001,196.734z"/>
	</g>
</g>
<g>
</g>
<g>
</g>
<g>
</g>
<g>
</g>
<g>
</g>
<g>
</g>
<g>
</g>
<g>
</g>
<g>
</g>
<g>
</g>
<g>
</g>
<g>
</g>
<g>
</g>
<g>
</g>
<g>
</g>
</svg>
