<?xml version="1.0" encoding="iso-8859-1"?>
<!-- Generator: Adobe Illustrator 19.0.0, SVG Export Plug-In . SVG Version: 6.00 Build 0)  -->
<svg version="1.1" id="Capa_1" xmlns="http://www.w3.org/2000/svg" xmlns:xlink="http://www.w3.org/1999/xlink" x="0px" y="0px"
	 viewBox="0 0 511.961 511.961" style="enable-background:new 0 0 511.961 511.961;" xml:space="preserve">
<g>
	<g>
		<path d="M271.981,95.961h-32v-80c0-6.304-3.712-12.032-9.472-14.624c-5.76-2.464-12.512-1.504-17.216,2.72l-160,144
			c-3.392,3.072-5.312,7.36-5.312,11.904s1.92,8.832,5.312,11.904l160,144c4.672,4.192,11.424,5.184,17.216,2.72
			c5.76-2.592,9.472-8.32,9.472-14.624v-80h32c35.296,0,64,28.704,64,64v208c0,8.832,7.168,16,16,16h96c8.832,0,16-7.168,16-16v-208
			C463.981,182.073,377.869,95.961,271.981,95.961z M431.981,479.961h-64v-192c0-52.928-43.072-96-96-96h-48
			c-8.832,0-16,7.168-16,16v60.064L87.917,159.961L207.981,51.897v60.064c0,8.832,7.168,16,16,16h48c88.224,0,160,71.776,160,160
			V479.961z"/>
	</g>
</g>
<g>
</g>
<g>
</g>
<g>
</g>
<g>
</g>
<g>
</g>
<g>
</g>
<g>
</g>
<g>
</g>
<g>
</g>
<g>
</g>
<g>
</g>
<g>
</g>
<g>
</g>
<g>
</g>
<g>
</g>
</svg>
