<?xml version="1.0" encoding="iso-8859-1"?>
<!-- Generator: Adobe Illustrator 19.0.0, SVG Export Plug-In . SVG Version: 6.00 Build 0)  -->
<svg version="1.1" id="Capa_1" xmlns="http://www.w3.org/2000/svg" xmlns:xlink="http://www.w3.org/1999/xlink" x="0px" y="0px"
	 viewBox="0 0 448.024 448.024" style="enable-background:new 0 0 448.024 448.024;" xml:space="preserve">
<g>
	<g>
		<path d="M426.406,99.864l-112-96c-6.016-5.152-14.816-5.152-20.8,0l-112,96c-5.088,4.352-6.944,11.424-4.608,17.696
			c2.336,6.304,8.32,10.464,15.008,10.464h48v192h-208c-8.832,0-16,7.168-16,16v96c0,8.832,7.168,16,16,16h320
			c8.832,0,16-7.168,16-16v-304h48c6.688,0,12.672-4.16,15.008-10.464C433.35,111.288,431.526,104.216,426.406,99.864z
			 M352.006,96.024c-8.832,0-16,7.168-16,16v304h-288v-64h208c8.832,0,16-7.168,16-16v-224c0-8.832-7.168-16-16-16H235.27
			l68.736-58.912l68.736,58.912H352.006z"/>
	</g>
</g>
<g>
</g>
<g>
</g>
<g>
</g>
<g>
</g>
<g>
</g>
<g>
</g>
<g>
</g>
<g>
</g>
<g>
</g>
<g>
</g>
<g>
</g>
<g>
</g>
<g>
</g>
<g>
</g>
<g>
</g>
</svg>
