<?xml version="1.0" encoding="iso-8859-1"?>
<!-- Generator: Adobe Illustrator 19.0.0, SVG Export Plug-In . SVG Version: 6.00 Build 0)  -->
<svg version="1.1" id="Capa_1" xmlns="http://www.w3.org/2000/svg" xmlns:xlink="http://www.w3.org/1999/xlink" x="0px" y="0px"
	 viewBox="0 0 480 480" style="enable-background:new 0 0 480 480;" xml:space="preserve">
<g>
	<g>
		<path d="M428.628,119.456L340.308,6.144C337.268,2.272,332.628,0,327.668,0h-80.96c-6.176,0-11.808,3.552-14.464,9.152
			c-2.624,5.568-1.856,12.192,2.048,16.96L278.26,80h-30.272c-110.272,0-200,89.728-200,200s89.728,200,200,200h8
			c8.832,0,16-7.168,16-16v-64c0-8.832-7.168-16-16-16h-8c-57.344,0-104-46.656-104-104s46.656-104,104-104h31.872l-43.968,53.888
			c-3.904,4.768-4.672,11.392-2.048,16.96c2.656,5.6,8.256,9.152,14.464,9.152h81.28c4.928,0,9.6-2.272,12.64-6.144l86.4-110.72
			C433.14,133.344,433.14,125.248,428.628,119.456z M321.78,224h-39.776l43.968-53.888c3.904-4.768,4.672-11.392,2.048-16.96
			c-2.624-5.6-8.256-9.152-14.432-9.152h-65.6c-75.008,0-136,61.024-136,136c0,72.288,56.704,131.616,128,135.776v32.032
			c-88.928-4.192-160-77.856-160-167.808c0-92.64,75.36-168,168-168h64c6.176,0,11.808-3.552,14.464-9.152
			c2.624-5.568,1.856-12.192-2.048-16.96L280.436,32h39.424l75.84,97.28L321.78,224z"/>
	</g>
</g>
<g>
</g>
<g>
</g>
<g>
</g>
<g>
</g>
<g>
</g>
<g>
</g>
<g>
</g>
<g>
</g>
<g>
</g>
<g>
</g>
<g>
</g>
<g>
</g>
<g>
</g>
<g>
</g>
<g>
</g>
</svg>
