<?xml version="1.0" encoding="iso-8859-1"?>
<!-- Generator: Adobe Illustrator 19.0.0, SVG Export Plug-In . SVG Version: 6.00 Build 0)  -->
<svg version="1.1" id="Capa_1" xmlns="http://www.w3.org/2000/svg" xmlns:xlink="http://www.w3.org/1999/xlink" x="0px" y="0px"
	 viewBox="0 0 512 512" style="enable-background:new 0 0 512 512;" xml:space="preserve">
<g>
	<g>
		<path d="M495.012,266.432c-2.336-6.272-8.32-10.432-15.008-10.432h-48v-48c0-114.688-93.312-208-208-208s-208,93.312-208,208v288
			c0,8.832,7.168,16,16,16h96c8.832,0,16-7.168,16-16V208c0-44.096,35.904-80,80-80s80,35.904,80,80v48h-48
			c-6.688,0-12.672,4.16-15.008,10.464c-2.336,6.272-0.48,13.344,4.608,17.664l112,96c5.984,5.152,14.848,5.152,20.8,0l112-96
			C495.492,279.776,497.316,272.736,495.012,266.432z M368.004,346.912L299.268,288h20.736c8.832,0,16-7.168,16-16v-64
			c0-61.76-50.24-112-112-112s-112,50.24-112,112v272h-64V208c0-97.056,78.944-176,176-176s176,78.944,176,176v64
			c0,4.256,1.696,8.32,4.672,11.328c2.976,3.008,7.104,4.672,11.328,4.672h20.736L368.004,346.912z"/>
	</g>
</g>
<g>
</g>
<g>
</g>
<g>
</g>
<g>
</g>
<g>
</g>
<g>
</g>
<g>
</g>
<g>
</g>
<g>
</g>
<g>
</g>
<g>
</g>
<g>
</g>
<g>
</g>
<g>
</g>
<g>
</g>
</svg>
