<?xml version="1.0" encoding="iso-8859-1"?>
<!-- Generator: Adobe Illustrator 19.0.0, SVG Export Plug-In . SVG Version: 6.00 Build 0)  -->
<svg version="1.1" id="Capa_1" xmlns="http://www.w3.org/2000/svg" xmlns:xlink="http://www.w3.org/1999/xlink" x="0px" y="0px"
	 viewBox="0 0 502.72 502.72" style="enable-background:new 0 0 502.72 502.72;" xml:space="preserve">
<g>
	<g>
		<path d="M438.668,140.672L303.02,4.704C300.012,1.696,295.948,0,291.692,0s-8.32,1.696-11.328,4.704l-45.44,45.44
			c-6.24,6.24-6.24,16.384,0,22.624l29.984,29.952h-5.536c-110.272,0-200,89.728-200,200s89.728,200,200,200h8
			c8.832,0,16-7.168,16-16v-64c0-8.832-7.168-16-16-16h-8c-57.344,0-104-46.656-104-104s46.656-104,104-104h7.936l-32.352,32.16
			c-3.008,3.008-4.704,7.104-4.704,11.328s1.696,8.32,4.672,11.328l45.44,45.44c6.24,6.24,16.384,6.24,22.624,0l135.68-135.68
			C444.908,157.056,444.908,146.944,438.668,140.672z M291.692,265.056l-22.784-22.784l48.48-48.192
			c4.608-4.576,5.984-11.456,3.52-17.44c-2.496-6.016-8.32-9.92-14.816-9.92h-46.72c-74.976,0-136,61.024-136,136
			c0,72.288,56.704,131.616,128,135.776v32.032c-88.928-4.192-160-77.856-160-167.808c0-92.64,75.36-168,168-168h44.16
			c6.464,0,12.32-3.904,14.784-9.888c2.496-5.984,1.12-12.864-3.456-17.44L268.876,61.44l22.784-22.784L404.748,152L291.692,265.056
			z"/>
	</g>
</g>
<g>
</g>
<g>
</g>
<g>
</g>
<g>
</g>
<g>
</g>
<g>
</g>
<g>
</g>
<g>
</g>
<g>
</g>
<g>
</g>
<g>
</g>
<g>
</g>
<g>
</g>
<g>
</g>
<g>
</g>
</svg>
