<?xml version="1.0" encoding="iso-8859-1"?>
<!-- Generator: Adobe Illustrator 19.0.0, SVG Export Plug-In . SVG Version: 6.00 Build 0)  -->
<svg version="1.1" id="Capa_1" xmlns="http://www.w3.org/2000/svg" xmlns:xlink="http://www.w3.org/1999/xlink" x="0px" y="0px"
	 viewBox="0 0 511.992 511.992" style="enable-background:new 0 0 511.992 511.992;" xml:space="preserve">
<g>
	<g>
		<path d="M507.84,245.211l-160-175.968c-4.448-4.896-11.424-6.56-17.6-4.16C324.064,67.451,320,73.371,320,79.995v112H16
			c-8.832,0-16,7.168-16,16v96c0,8.832,7.168,16,16,16h304v112c0,6.624,4.064,12.544,10.24,14.912
			c1.856,0.736,3.808,1.088,5.76,1.088c4.416,0,8.736-1.824,11.84-5.248l160-176C513.376,260.635,513.376,251.323,507.84,245.211z
			 M352,390.619v-86.624c0-8.832-7.168-16-16-16H32v-64h304c8.832,0,16-7.168,16-16v-86.624l122.368,134.624L352,390.619z"/>
	</g>
</g>
<g>
</g>
<g>
</g>
<g>
</g>
<g>
</g>
<g>
</g>
<g>
</g>
<g>
</g>
<g>
</g>
<g>
</g>
<g>
</g>
<g>
</g>
<g>
</g>
<g>
</g>
<g>
</g>
<g>
</g>
</svg>
