<?xml version="1.0" encoding="iso-8859-1"?>
<!-- Generator: Adobe Illustrator 19.0.0, SVG Export Plug-In . SVG Version: 6.00 Build 0)  -->
<svg version="1.1" id="Capa_1" xmlns="http://www.w3.org/2000/svg" xmlns:xlink="http://www.w3.org/1999/xlink" x="0px" y="0px"
	 viewBox="0 0 512 512" style="enable-background:new 0 0 512 512;" xml:space="preserve">
<g>
	<g>
		<path d="M503.168,241.688l-480-240C18.176-0.776,12.288-0.52,7.584,2.392C2.88,5.304,0,10.456,0,15.992v208
			c0,8.832,7.168,16,16,16h128c8.832,0,16-7.168,16-16V201.88l108.224,54.112L160,310.104v-22.112c0-8.832-7.168-16-16-16H16
			c-8.832,0-16,7.168-16,16v208c0,5.536,2.88,10.688,7.584,13.6c2.56,1.6,5.504,2.4,8.416,2.4c2.464,0,4.896-0.576,7.168-1.696
			l480-240c5.408-2.72,8.832-8.256,8.832-14.304C512,249.944,508.576,244.408,503.168,241.688z M32,470.104V303.992h96v32
			c0,5.536,2.88,10.688,7.584,13.6c4.704,2.912,10.592,3.136,15.552,0.704l160-80c5.44-2.72,8.864-8.256,8.864-14.304
			c0-6.048-3.424-11.584-8.832-14.304l-160-80c-4.992-2.464-10.848-2.24-15.584,0.704c-4.704,2.912-7.584,8.064-7.584,13.6v32H32
			V41.88l428.224,214.112L32,470.104z"/>
	</g>
</g>
<g>
</g>
<g>
</g>
<g>
</g>
<g>
</g>
<g>
</g>
<g>
</g>
<g>
</g>
<g>
</g>
<g>
</g>
<g>
</g>
<g>
</g>
<g>
</g>
<g>
</g>
<g>
</g>
<g>
</g>
</svg>
