<?xml version="1.0" encoding="iso-8859-1"?>
<!-- Generator: Adobe Illustrator 19.0.0, SVG Export Plug-In . SVG Version: 6.00 Build 0)  -->
<svg version="1.1" id="Capa_1" xmlns="http://www.w3.org/2000/svg" xmlns:xlink="http://www.w3.org/1999/xlink" x="0px" y="0px"
	 viewBox="0 0 512 512" style="enable-background:new 0 0 512 512;" xml:space="preserve">
<g>
	<g>
		<path d="M496,319.999H128v-48c0-6.688-4.16-12.672-10.432-15.008c-6.24-2.336-13.344-0.48-17.728,4.608l-96,112
			c-5.12,5.984-5.12,14.816,0,20.8l96,112c3.104,3.616,7.552,5.6,12.16,5.6c1.888,0,3.744-0.32,5.568-0.992
			c6.272-2.336,10.432-8.32,10.432-15.008v-48h368c8.832,0,16-7.168,16-16v-96C512,327.167,504.832,319.999,496,319.999z
			 M480,415.999H112c-8.832,0-16,7.168-16,16v20.736l-58.944-68.736L96,315.263v20.736c0,8.832,7.168,16,16,16h368V415.999z"/>
	</g>
</g>
<g>
	<g>
		<path d="M508.16,117.599l-96-112c-4.384-5.12-11.456-6.912-17.728-4.608C388.16,3.327,384,9.311,384,15.999v48H16
			c-8.832,0-16,7.168-16,16v96c0,8.832,7.168,16,16,16h368v48c0,6.688,4.16,12.672,10.432,15.008
			c1.824,0.672,3.68,0.992,5.568,0.992c4.608,0,9.056-1.984,12.16-5.6l96-112C513.28,132.415,513.28,123.583,508.16,117.599z
			 M416,196.735v-20.736c0-8.832-7.168-16-16-16H32v-64h368c8.832,0,16-7.168,16-16V59.263l58.944,68.736L416,196.735z"/>
	</g>
</g>
<g>
</g>
<g>
</g>
<g>
</g>
<g>
</g>
<g>
</g>
<g>
</g>
<g>
</g>
<g>
</g>
<g>
</g>
<g>
</g>
<g>
</g>
<g>
</g>
<g>
</g>
<g>
</g>
<g>
</g>
</svg>
