<?xml version="1.0" encoding="iso-8859-1"?>
<!-- Generator: Adobe Illustrator 19.0.0, SVG Export Plug-In . SVG Version: 6.00 Build 0)  -->
<svg version="1.1" id="Capa_1" xmlns="http://www.w3.org/2000/svg" xmlns:xlink="http://www.w3.org/1999/xlink" x="0px" y="0px"
	 viewBox="0 0 511.984 511.984" style="enable-background:new 0 0 511.984 511.984;" xml:space="preserve">
<g>
	<g>
		<path d="M508.12,357.604l-96-112c-4.384-5.088-11.456-6.944-17.696-4.608c-6.272,2.336-10.432,8.32-10.432,15.008v48h-64v-160h48
			c6.688,0,12.672-4.16,15.008-10.464c2.336-6.272,0.512-13.344-4.608-17.696l-112-96c-5.984-5.152-14.848-5.152-20.8,0l-112,96
			c-5.088,4.352-6.944,11.424-4.608,17.696c2.336,6.304,8.32,10.464,15.008,10.464h48v160h-64v-48
			c0-6.688-4.16-12.672-10.464-15.008s-13.344-0.48-17.664,4.608l-96,112c-5.152,5.984-5.152,14.816,0,20.8l96,112
			c4.352,5.088,11.36,6.88,17.696,4.608c6.272-2.336,10.432-8.32,10.432-15.008v-48h256v48c0,6.688,4.16,12.672,10.464,15.008
			c1.792,0.672,3.68,0.992,5.536,0.992c4.576,0,9.056-1.984,12.128-5.6l96-112C513.272,372.42,513.272,363.588,508.12,357.604z
			 M415.992,436.74v-20.736c0-8.832-7.168-16-16-16h-288c-8.832,0-16,7.168-16,16v20.736L37.08,368.004l58.912-68.736v20.736
			c0,8.832,7.168,16,16,16h96c8.832,0,16-7.168,16-16v-192c0-8.832-7.168-16-16-16h-20.736l68.736-58.912l68.736,58.912h-20.736
			c-8.832,0-16,7.168-16,16v192c0,8.832,7.168,16,16,16h96c8.832,0,16-7.168,16-16v-20.736l58.912,68.736L415.992,436.74z"/>
	</g>
</g>
<g>
</g>
<g>
</g>
<g>
</g>
<g>
</g>
<g>
</g>
<g>
</g>
<g>
</g>
<g>
</g>
<g>
</g>
<g>
</g>
<g>
</g>
<g>
</g>
<g>
</g>
<g>
</g>
<g>
</g>
</svg>
