<?xml version="1.0" encoding="iso-8859-1"?>
<!-- Generator: Adobe Illustrator 19.0.0, SVG Export Plug-In . SVG Version: 6.00 Build 0)  -->
<svg version="1.1" id="Capa_1" xmlns="http://www.w3.org/2000/svg" xmlns:xlink="http://www.w3.org/1999/xlink" x="0px" y="0px"
	 viewBox="0 0 512.08 512.08" style="enable-background:new 0 0 512.08 512.08;" xml:space="preserve">
<g>
	<g>
		<path d="M510.849,249.928c-2.496-5.984-8.32-9.888-14.784-9.888h-16c0-123.52-100.512-224-224-224c-8.832,0-16,7.168-16,16v64
			c0,8.832,7.168,16,16,16c70.592,0,128,57.408,128,128h-16c-6.464,0-12.32,3.904-14.784,9.888s-1.088,12.864,3.456,17.44l64,64
			c3.136,3.104,7.232,4.672,11.328,4.672s8.192-1.568,11.328-4.672l64-64C511.969,262.792,513.345,255.912,510.849,249.928z
			 M432.065,297.416l-26.368-26.4c6.048-2.272,10.368-8.128,10.368-14.976v-16c0-82.816-63.264-151.168-144-159.2V48.712
			c98.4,8.128,176,90.848,176,191.328v16c0,6.848,4.32,12.704,10.368,14.976L432.065,297.416z"/>
	</g>
</g>
<g>
	<g>
		<path d="M219.105,47.528c-2.112-3.648-5.6-6.336-9.728-7.456L121.953,16.68c-6.176-1.76-12.928,0.544-16.832,5.696
			c-3.936,5.12-4.384,12.128-1.152,17.728l8,13.856C60.289,83.816,23.297,132.136,7.745,190.056
			c-15.488,57.888-7.584,118.24,22.24,169.92c2.112,3.68,5.6,6.368,9.728,7.456c1.344,0.352,2.752,0.544,4.128,0.544
			c2.784,0,5.568-0.736,8-2.144l55.392-32c7.68-4.448,10.304-14.208,5.856-21.856c-35.264-61.12-14.24-139.552,46.88-174.848
			l8,13.856c3.232,5.6,9.312,8.704,15.936,7.872c6.4-0.832,11.68-5.472,13.376-11.712l23.424-87.424
			C221.825,55.592,221.217,51.208,219.105,47.528z M176.001,102.92c-1.76-1.472-3.808-2.528-6.048-3.104
			c-4.032-1.12-8.48-0.512-12.128,1.568l-13.856,8c-71.712,41.408-99.264,130.336-65.888,204.32l-27.808,16.064
			c-19.328-40.928-23.488-87.04-11.584-131.456c13.28-49.632,44.992-91.04,89.28-116.608l13.856-8
			c5.952-3.424,8.832-10.112,7.776-16.512l36.064,9.664L176.001,102.92z"/>
	</g>
</g>
<g>
	<g>
		<path d="M447.521,371.944c-1.12-4.032-3.776-7.552-7.456-9.664l-55.424-32c-3.68-2.08-8-2.688-12.16-1.6
			c-4.096,1.088-7.584,3.776-9.696,7.456c-17.056,29.536-44.672,50.688-77.76,59.552s-67.552,4.352-97.088-12.704l7.968-13.856
			c3.264-5.6,2.784-12.608-1.152-17.728c-3.904-5.152-10.592-7.424-16.832-5.728l-87.392,23.424
			c-8.544,2.272-13.6,11.072-11.328,19.584l23.392,87.424c1.696,6.24,6.976,10.88,13.376,11.712
			c6.528,0.832,12.704-2.272,15.936-7.872l8-13.856h0.032c35.2,20.32,73.664,29.952,111.616,29.952
			c77.472,0,152.896-40.16,194.336-111.968C448.001,380.392,448.609,376.04,447.521,371.944z M301.601,457.416
			c-49.728,13.312-101.376,6.56-145.664-19.008l-13.888-8c-2.528-1.44-5.28-2.144-8-2.144c-3.648,0-7.296,1.28-10.144,3.648
			l-9.664-36.032l36.032-9.664c-0.384,2.24-0.288,4.544,0.32,6.752c1.12,4.096,3.808,7.584,7.456,9.728l13.888,8
			c36.896,21.344,80.128,26.976,121.376,15.904c36.128-9.696,67.04-31.104,88.512-60.992l27.808,16.064
			C383.841,418.888,346.017,445.512,301.601,457.416z"/>
	</g>
</g>
<g>
</g>
<g>
</g>
<g>
</g>
<g>
</g>
<g>
</g>
<g>
</g>
<g>
</g>
<g>
</g>
<g>
</g>
<g>
</g>
<g>
</g>
<g>
</g>
<g>
</g>
<g>
</g>
<g>
</g>
</svg>
