<?xml version="1.0" encoding="iso-8859-1"?>
<!-- Generator: Adobe Illustrator 19.0.0, SVG Export Plug-In . SVG Version: 6.00 Build 0)  -->
<svg version="1.1" id="Capa_1" xmlns="http://www.w3.org/2000/svg" xmlns:xlink="http://www.w3.org/1999/xlink" x="0px" y="0px"
	 viewBox="0 0 512 512" style="enable-background:new 0 0 512 512;" xml:space="preserve">
<g>
	<g>
		<path d="M486.112,177.216c-5.952-2.432-12.832-1.12-17.44,3.456l-64,64C401.696,247.68,400,251.744,400,256v96H144v-48
			c0-6.464-3.904-12.32-9.888-14.784c-5.888-2.464-12.864-1.12-17.44,3.456l-96,96c-6.24,6.24-6.24,16.384,0,22.624l96,96
			C119.744,510.368,123.84,512,128,512c2.048,0,4.16-0.416,6.112-1.216C140.096,508.32,144,502.464,144,496v-48h272
			c44.128,0,80-35.872,80-80V192C496,185.536,492.096,179.68,486.112,177.216z M464,368c0,26.464-21.536,48-48,48H128
			c-8.832,0-16,7.168-16,16v25.376L54.624,400L112,342.624V368c0,8.832,7.168,16,16,16h288c8.832,0,16-7.168,16-16V262.624l32-32
			V368z"/>
	</g>
</g>
<g>
	<g>
		<path d="M491.328,100.704l-96-96.032c-4.576-4.576-11.488-5.92-17.44-3.456C371.904,3.68,368,9.536,368,16v48H96
			c-44.128,0-80,35.872-80,80v176c0,6.464,3.904,12.32,9.888,14.784C27.84,335.584,29.952,336,32,336
			c4.16,0,8.256-1.632,11.328-4.672l64-64C110.304,264.32,112,260.256,112,256v-96h256v48c0,6.464,3.904,12.32,9.888,14.784
			c5.92,2.432,12.832,1.088,17.44-3.456l96-96C497.568,117.088,497.568,106.944,491.328,100.704z M400,169.376V144
			c0-8.832-7.168-16-16-16H96c-8.832,0-16,7.168-16,16v105.376l-32,32V144c0-26.464,21.536-48,48-48h288c8.832,0,16-7.168,16-16
			V54.624L457.376,112L400,169.376z"/>
	</g>
</g>
<g>
</g>
<g>
</g>
<g>
</g>
<g>
</g>
<g>
</g>
<g>
</g>
<g>
</g>
<g>
</g>
<g>
</g>
<g>
</g>
<g>
</g>
<g>
</g>
<g>
</g>
<g>
</g>
<g>
</g>
</svg>
