<?xml version="1.0" encoding="iso-8859-1"?>
<!-- Generator: Adobe Illustrator 19.0.0, SVG Export Plug-In . SVG Version: 6.00 Build 0)  -->
<svg version="1.1" id="Capa_1" xmlns="http://www.w3.org/2000/svg" xmlns:xlink="http://www.w3.org/1999/xlink" x="0px" y="0px"
	 viewBox="0 0 512 512" style="enable-background:new 0 0 512 512;" xml:space="preserve">
<g>
	<g>
		<path d="M496,0H336c-6.464,0-12.32,3.904-14.784,9.888c-2.496,5.984-1.12,12.864,3.456,17.44l44.736,44.704L256.096,174.08
			L142.624,72l44.704-44.704c4.576-4.544,5.952-11.456,3.456-17.408C188.32,3.904,182.464,0,176,0H16C7.168,0,0,7.168,0,16v160
			c0,6.464,3.904,12.32,9.888,14.784C11.872,191.584,13.952,192,16,192c4.16,0,8.256-1.632,11.328-4.672l47.488-47.488
			l109.568,98.88l-24.896,22.368C129.312,288.416,112,327.36,112,368c0,79.392,64.608,144,144,144s144-64.608,144-144
			c0-40.64-17.312-79.584-47.488-106.912L341.76,272.96l10.688-11.904l-24.896-22.4l109.632-98.848l47.488,47.52
			C487.744,190.368,491.84,192,496,192c2.048,0,4.128-0.416,6.112-1.216C508.096,188.32,512,182.464,512,176V16
			C512,7.168,504.832,0,496,0z M84.96,105.888l-0.096,0.096c-6.304-5.664-15.904-5.6-21.952,0.448L32,137.376V32h105.344
			l-29.312,29.312c-6.24,6.24-6.24,16.384,0,22.624c0.224,0.224,0.512,0.288,0.736,0.48l-0.096,0.128l123.52,111.104l-23.904,21.504
			L84.96,105.888z M480,137.376l-30.912-30.944c-6.048-6.048-15.648-6.112-21.92-0.448l-0.096-0.096l-224.64,202.56l-8.064,7.392
			l0.288,0.8C182.688,330.976,176,349.152,176,368c0,44.128,35.904,80,80,80s80-35.872,80-80c0-19.296-7.008-37.888-19.456-52.32
			l0.192-0.8l-36.8-33.248l23.744-21.408l27.392,24.64C354.528,306.112,368,336.416,368,368c0,61.76-50.24,112-112,112
			s-112-50.24-112-112c0-31.584,13.472-61.92,36.928-83.168l222.4-200.352l-0.096-0.096c0.224-0.192,0.48-0.256,0.704-0.448
			c6.24-6.24,6.24-16.384,0-22.624L374.656,32H480V137.376z M288.128,332.32C298.208,341.408,304,354.432,304,368
			c0,26.464-21.536,48-48,48s-48-21.536-48-48c0-13.568,5.792-26.592,15.904-35.68l8.032-7.392l24.096-21.728l24.992,22.56
			l-0.032,0.128L288.128,332.32z"/>
	</g>
</g>
<g>
</g>
<g>
</g>
<g>
</g>
<g>
</g>
<g>
</g>
<g>
</g>
<g>
</g>
<g>
</g>
<g>
</g>
<g>
</g>
<g>
</g>
<g>
</g>
<g>
</g>
<g>
</g>
<g>
</g>
</svg>
