<?xml version="1.0" encoding="iso-8859-1"?>
<!-- Generator: Adobe Illustrator 19.0.0, SVG Export Plug-In . SVG Version: 6.00 Build 0)  -->
<svg version="1.1" id="Capa_1" xmlns="http://www.w3.org/2000/svg" xmlns:xlink="http://www.w3.org/1999/xlink" x="0px" y="0px"
	 viewBox="0 0 512.028 512.028" style="enable-background:new 0 0 512.028 512.028;" xml:space="preserve">
<g>
	<g>
		<path d="M511.966,398.531l-16-176c-0.608-6.176-4.672-11.488-10.528-13.6c-5.856-2.08-12.384-0.64-16.768,3.744l-34.752,34.752
			L301.246,114.723c-24.928-24.928-65.536-24.928-90.464,0L78.078,247.427l-34.752-34.784c-4.416-4.416-10.912-5.792-16.768-3.712
			c-5.856,2.112-9.92,7.424-10.496,13.6l-16,176c-0.416,4.736,1.28,9.408,4.64,12.768c3.36,3.36,8.096,5.056,12.768,4.64l176-16
			c6.176-0.576,11.488-4.672,13.6-10.496c2.112-5.856,0.672-12.384-3.744-16.768l-34.784-34.784l87.456-87.456l87.456,87.456
			l-34.752,34.752c-4.384,4.384-5.856,10.912-3.744,16.768c2.112,5.824,7.424,9.92,13.6,10.496l176,16
			c0.48,0.064,0.96,0.064,1.44,0.064c4.224,0,8.288-1.664,11.328-4.672C510.686,407.939,512.382,403.267,511.966,398.531z
			 M355.454,371.107l21.92-21.92c6.24-6.24,6.24-16.384,0-22.624l-110.08-110.08c-6.24-6.24-16.384-6.24-22.624,0l-110.08,110.08
			c-6.24,6.24-6.24,16.384,0,22.624l21.92,21.92L33.662,382.275L44.83,259.427l21.92,21.92c6.24,6.24,16.384,6.24,22.624,0l144-144
			c12.224-12.224,32.992-12.224,45.216,0l144,144c6.24,6.24,16.384,6.24,22.624,0l21.92-21.92l11.168,122.848L355.454,371.107z"/>
	</g>
</g>
<g>
</g>
<g>
</g>
<g>
</g>
<g>
</g>
<g>
</g>
<g>
</g>
<g>
</g>
<g>
</g>
<g>
</g>
<g>
</g>
<g>
</g>
<g>
</g>
<g>
</g>
<g>
</g>
<g>
</g>
</svg>
