<?xml version="1.0" encoding="iso-8859-1"?>
<!-- Generator: Adobe Illustrator 19.0.0, SVG Export Plug-In . SVG Version: 6.00 Build 0)  -->
<svg version="1.1" id="Capa_1" xmlns="http://www.w3.org/2000/svg" xmlns:xlink="http://www.w3.org/1999/xlink" x="0px" y="0px"
	 viewBox="0 0 512.008 512.008" style="enable-background:new 0 0 512.008 512.008;" xml:space="preserve">
<g>
	<g>
		<path d="M256.016,192.008c-35.296,0-64,28.704-64,64s28.704,64,64,64s64-28.704,64-64
			C320.016,220.712,291.312,192.008,256.016,192.008z M256.016,288.008c-17.664,0-32-14.336-32-32s14.336-32,32-32s32,14.336,32,32
			S273.68,288.008,256.016,288.008z"/>
	</g>
</g>
<g>
	<g>
		<path d="M508.528,166.024l-64-80c-4.256-5.344-11.424-7.392-17.792-5.088c-6.432,2.24-10.72,8.288-10.72,15.072v32h-160
			c-70.592,0-128,57.408-128,128c0,11.104,1.344,21.792,4.064,32H96.016v-32c0-6.784-4.288-12.832-10.72-15.104
			c-6.272-2.272-13.504-0.224-17.792,5.12l-64,80c-4.672,5.856-4.672,14.144,0,20l64,80c3.104,3.872,7.744,5.984,12.512,5.984
			c1.792,0,3.552-0.288,5.28-0.896c6.432-2.272,10.72-8.32,10.72-15.104v-32h160c70.592,0,128-57.408,128-128
			c0-11.104-1.344-21.792-4.064-32h36.064v32c0,6.784,4.288,12.832,10.72,15.104c6.336,2.304,13.536,0.256,17.792-5.088l64-80
			C513.168,180.168,513.168,171.848,508.528,166.024z M448.016,210.376v-2.368c0-8.832-7.168-16-16-16h-75.2
			c-5.568,0-10.752,2.912-13.664,7.648c-2.912,4.704-3.136,10.656-0.608,15.616c6.272,12.288,9.472,25.984,9.472,40.736
			c0,52.928-43.072,96-96,96h-176c-8.832,0-16,7.168-16,16v2.368l-27.488-34.368l27.488-34.368v2.368c0,8.832,7.168,16,16,16h75.2
			c5.568,0,10.752-2.912,13.664-7.648c2.912-4.704,3.136-10.656,0.608-15.616c-6.272-12.288-9.472-25.984-9.472-40.736
			c0-52.928,43.072-96,96-96h176c8.832,0,16-7.168,16-16v-2.368l27.488,34.368L448.016,210.376z"/>
	</g>
</g>
<g>
</g>
<g>
</g>
<g>
</g>
<g>
</g>
<g>
</g>
<g>
</g>
<g>
</g>
<g>
</g>
<g>
</g>
<g>
</g>
<g>
</g>
<g>
</g>
<g>
</g>
<g>
</g>
<g>
</g>
</svg>
