<?xml version="1.0" encoding="iso-8859-1"?>
<!-- Generator: Adobe Illustrator 19.0.0, SVG Export Plug-In . SVG Version: 6.00 Build 0)  -->
<svg version="1.1" id="Capa_1" xmlns="http://www.w3.org/2000/svg" xmlns:xlink="http://www.w3.org/1999/xlink" x="0px" y="0px"
	 viewBox="0 0 480 480" style="enable-background:new 0 0 480 480;" xml:space="preserve">
<g>
	<g>
		<path d="M474.08,227.581l-256-208c-4.8-3.904-11.456-4.672-16.96-2.016c-5.568,2.624-9.12,8.256-9.12,14.432v122.368L26.08,19.581
			c-4.8-3.904-11.424-4.672-16.96-2.016C3.552,20.189,0,25.821,0,31.997v416c0,6.176,3.552,11.808,9.12,14.464
			c2.208,1.024,4.544,1.536,6.88,1.536c3.584,0,7.2-1.216,10.08-3.584L192,325.629v122.368c0,6.176,3.552,11.808,9.12,14.464
			c2.208,1.024,4.544,1.536,6.88,1.536c3.584,0,7.2-1.216,10.08-3.584l256-208c3.776-3.04,5.92-7.616,5.92-12.416
			S477.856,230.621,474.08,227.581z M197.056,280.285c-0.128,0.128-0.32,0.224-0.448,0.352L32,414.397v-348.8l214.624,174.4
			L197.056,280.285z M224,414.397V299.613l58.08-47.2c3.776-3.04,5.92-7.616,5.92-12.416s-2.144-9.376-5.92-12.416l-58.08-47.2
			V65.597l214.624,174.4L224,414.397z"/>
	</g>
</g>
<g>
</g>
<g>
</g>
<g>
</g>
<g>
</g>
<g>
</g>
<g>
</g>
<g>
</g>
<g>
</g>
<g>
</g>
<g>
</g>
<g>
</g>
<g>
</g>
<g>
</g>
<g>
</g>
<g>
</g>
</svg>
