<?xml version="1.0" encoding="iso-8859-1"?>
<!-- Generator: Adobe Illustrator 19.0.0, SVG Export Plug-In . SVG Version: 6.00 Build 0)  -->
<svg version="1.1" id="Capa_1" xmlns="http://www.w3.org/2000/svg" xmlns:xlink="http://www.w3.org/1999/xlink" x="0px" y="0px"
	 viewBox="0 0 512 512" style="enable-background:new 0 0 512 512;" xml:space="preserve">
<g>
	<g>
		<path d="M506.816,244.227l-192-176c-4.672-4.352-11.456-5.408-17.248-2.88c-5.824,2.56-9.568,8.32-9.568,14.656v352
			c0,6.336,3.744,12.096,9.568,14.656c2.048,0.896,4.256,1.344,6.432,1.344c3.936,0,7.808-1.44,10.816-4.224l192-176
			c3.296-3.04,5.184-7.264,5.184-11.776C512,251.491,510.112,247.267,506.816,244.227z M320,395.619V116.387l152.32,139.616
			L320,395.619z"/>
	</g>
</g>
<g>
	<g>
		<path d="M214.432,65.347c-5.728-2.528-12.576-1.44-17.248,2.88l-192,176C1.888,247.267,0,251.491,0,256.003
			c0,4.512,1.888,8.736,5.184,11.776l192,176c3.008,2.784,6.88,4.224,10.816,4.224c2.176,0,4.384-0.448,6.432-1.344
			c5.824-2.56,9.568-8.32,9.568-14.656v-352C224,73.667,220.256,67.907,214.432,65.347z M192,395.619L39.68,256.003L192,116.387
			V395.619z"/>
	</g>
</g>
<g>
</g>
<g>
</g>
<g>
</g>
<g>
</g>
<g>
</g>
<g>
</g>
<g>
</g>
<g>
</g>
<g>
</g>
<g>
</g>
<g>
</g>
<g>
</g>
<g>
</g>
<g>
</g>
<g>
</g>
</svg>
