<?xml version="1.0" encoding="iso-8859-1"?>
<!-- Generator: Adobe Illustrator 19.0.0, SVG Export Plug-In . SVG Version: 6.00 Build 0)  -->
<svg version="1.1" id="Capa_1" xmlns="http://www.w3.org/2000/svg" xmlns:xlink="http://www.w3.org/1999/xlink" x="0px" y="0px"
	 viewBox="0 0 511.992 511.992" style="enable-background:new 0 0 511.992 511.992;" xml:space="preserve">
<g>
	<g>
		<path d="M508.128,357.596l-96-112c-4.352-5.12-11.456-6.912-17.696-4.608c-6.272,2.336-10.432,8.32-10.432,15.008v48h-80
			c-8.832,0-16-7.168-16-16v-128c0-79.392-64.608-144-144-144S0,80.604,0,159.996c0,8.832,7.168,16,16,16h96c8.832,0,16-7.168,16-16
			c0-8.832,7.168-16,16-16c8.832,0,16,7.168,16,16v128c0,79.392,64.608,144,144,144h80v48c0,6.688,4.16,12.672,10.464,15.008
			c1.792,0.672,3.68,0.992,5.536,0.992c4.576,0,9.056-1.984,12.128-5.6l96-112C513.28,372.412,513.28,363.58,508.128,357.596z
			 M416,436.732v-20.736c0-8.832-7.168-16-16-16h-96c-61.76,0-112-50.24-112-112v-128c0-26.464-21.536-48-48-48
			c-20.864,0-38.656,13.376-45.28,32h-65.6c7.808-54.208,54.56-96,110.88-96c61.76,0,112,50.24,112,112v128
			c0,26.464,21.536,48,48,48h96c8.832,0,16-7.168,16-16V299.26l58.912,68.736L416,436.732z"/>
	</g>
</g>
<g>
</g>
<g>
</g>
<g>
</g>
<g>
</g>
<g>
</g>
<g>
</g>
<g>
</g>
<g>
</g>
<g>
</g>
<g>
</g>
<g>
</g>
<g>
</g>
<g>
</g>
<g>
</g>
<g>
</g>
</svg>
