<?xml version="1.0" encoding="iso-8859-1"?>
<!-- Generator: Adobe Illustrator 19.0.0, SVG Export Plug-In . SVG Version: 6.00 Build 0)  -->
<svg version="1.1" id="Capa_1" xmlns="http://www.w3.org/2000/svg" xmlns:xlink="http://www.w3.org/1999/xlink" x="0px" y="0px"
	 viewBox="0 0 512 512" style="enable-background:new 0 0 512 512;" xml:space="preserve">
<g>
	<g>
		<path d="M508.16,245.6l-96-112c-4.384-5.088-11.456-6.912-17.728-4.608C388.16,131.328,384,137.312,384,144v48h-32V16
			c0-8.832-7.168-16-16-16H176c-8.832,0-16,7.168-16,16v176h-32v-48c0-6.688-4.16-12.672-10.432-15.008
			c-6.24-2.336-13.344-0.48-17.728,4.608l-96,112c-5.12,5.984-5.12,14.816,0,20.8l96,112c4.384,5.12,11.456,6.912,17.728,4.608
			C123.84,380.672,128,374.688,128,368v-48h32v176c0,8.832,7.168,16,16,16h160c8.832,0,16-7.168,16-16V320h32v48
			c0,6.688,4.16,12.672,10.432,15.008c6.24,2.304,13.344,0.512,17.728-4.608l96-112C513.28,260.416,513.28,251.584,508.16,245.6z
			 M416,324.736V304c0-8.832-7.168-16-16-16h-64c-8.832,0-16,7.168-16,16v176H192V304c0-8.832-7.168-16-16-16h-64
			c-8.832,0-16,7.168-16,16v20.736L37.056,256L96,187.264V208c0,8.832,7.168,16,16,16h64c8.832,0,16-7.168,16-16V32h128v176
			c0,8.832,7.168,16,16,16h64c8.832,0,16-7.168,16-16v-20.736L474.944,256L416,324.736z"/>
	</g>
</g>
<g>
</g>
<g>
</g>
<g>
</g>
<g>
</g>
<g>
</g>
<g>
</g>
<g>
</g>
<g>
</g>
<g>
</g>
<g>
</g>
<g>
</g>
<g>
</g>
<g>
</g>
<g>
</g>
<g>
</g>
</svg>
