<?xml version="1.0" encoding="iso-8859-1"?>
<!-- Generator: Adobe Illustrator 19.0.0, SVG Export Plug-In . SVG Version: 6.00 Build 0)  -->
<svg version="1.1" id="Capa_1" xmlns="http://www.w3.org/2000/svg" xmlns:xlink="http://www.w3.org/1999/xlink" x="0px" y="0px"
	 viewBox="0 0 512.008 512.008" style="enable-background:new 0 0 512.008 512.008;" xml:space="preserve">
<g>
	<g>
		<path d="M411.328,276.692c-4.576-4.576-11.456-5.92-17.44-3.456c-5.984,2.432-9.888,8.288-9.888,14.752v48h-43.84
			c-12.64,0-24.096-7.52-29.184-19.232l-26.624-60.8l26.624-60.768c5.088-11.68,16.544-19.2,29.184-19.2H384v48
			c0,6.464,3.904,12.32,9.888,14.784c5.952,2.432,12.832,1.088,17.44-3.456l96-96c6.24-6.24,6.24-16.384,0-22.624l-96-96
			c-4.576-4.576-11.456-5.92-17.44-3.456C387.904,19.668,384,25.524,384,31.988v48h-43.84c-44.32,0-84.96,23.008-108.16,59.968
			c-23.232-36.96-64-59.968-108.48-59.968H16c-8.832,0-16,7.168-16,16v64c0,8.832,7.168,16,16,16h107.52
			c12.8,0,24.416,7.52,29.504,19.232l26.624,60.8l-26.624,60.768c-5.088,11.68-16.672,19.2-29.504,19.2H16c-8.832,0-16,7.168-16,16
			v64c0,8.832,7.168,16,16,16h107.52c44.48,0,85.248-23.008,108.48-59.968c23.2,36.96,63.84,59.968,108.16,59.968H384v48
			c0,6.464,3.904,12.32,9.888,14.784c1.952,0.8,4.064,1.216,6.112,1.216c4.16,0,8.256-1.632,11.328-4.672l96-96
			c6.24-6.24,6.24-16.384,0-22.624L411.328,276.692z M252.416,169.588c15.328-34.976,49.76-57.6,87.744-57.6H400
			c8.832,0,16-7.168,16-16V70.612l57.376,57.376L416,185.364v-25.376c0-8.832-7.168-16-16-16h-59.84
			c-25.376,0-48.352,15.104-58.496,38.4l-14.784,33.728l-17.408-39.808L252.416,169.588z M211.584,342.388
			c-15.328,34.976-49.888,57.6-88.064,57.6H32v-32h91.52c25.568,0,48.672-15.104,58.816-38.4l14.784-33.728l17.44,39.808
			L211.584,342.388z M416,441.364v-25.376c0-8.832-7.168-16-16-16h-59.84c-37.984,0-72.416-22.624-87.744-57.6l-70.048-160
			c-10.176-23.296-33.28-38.4-58.848-38.4H32v-32h91.52c38.144,0,72.704,22.624,88.064,57.6l70.048,160
			c10.176,23.296,33.152,38.4,58.528,38.4H400c8.832,0,16-7.168,16-16v-25.376l57.376,57.376L416,441.364z"/>
	</g>
</g>
<g>
</g>
<g>
</g>
<g>
</g>
<g>
</g>
<g>
</g>
<g>
</g>
<g>
</g>
<g>
</g>
<g>
</g>
<g>
</g>
<g>
</g>
<g>
</g>
<g>
</g>
<g>
</g>
<g>
</g>
</svg>
