<?xml version="1.0" encoding="iso-8859-1"?>
<!-- Generator: Adobe Illustrator 19.0.0, SVG Export Plug-In . SVG Version: 6.00 Build 0)  -->
<svg version="1.1" id="Capa_1" xmlns="http://www.w3.org/2000/svg" xmlns:xlink="http://www.w3.org/1999/xlink" x="0px" y="0px"
	 viewBox="0 0 512.008 512.008" style="enable-background:new 0 0 512.008 512.008;" xml:space="preserve">
<g>
	<g>
		<path d="M463.997,320.008h-64c-8.832,0-16,7.168-16,16v80h-256v-80c0-8.832-7.168-16-16-16h-64c-8.832,0-16,7.168-16,16v128
			c0,26.464,21.536,48,48,48h352c26.464,0,48-21.536,48-48v-128C479.997,327.176,472.829,320.008,463.997,320.008z M447.997,464.008
			c0,8.8-7.168,16-16,16h-352c-8.832,0-16-7.2-16-16v-112h32v80c0,8.832,7.168,16,16,16h288c8.832,0,16-7.168,16-16v-80h32V464.008z
			"/>
	</g>
</g>
<g>
	<g>
		<path d="M475.325,100.68l-96-96c-6.24-6.24-16.384-6.24-22.624,0l-96,96c-4.608,4.576-5.984,11.488-3.488,17.44
			c2.464,5.984,8.32,9.888,14.784,9.888h48v48c0,61.76-50.24,112-112,112h-32c-8.832,0-16,7.168-16,16v64c0,8.832,7.168,16,16,16h32
			c114.688,0,208-93.312,208-208v-48h48c6.464,0,12.32-3.904,14.784-9.888C481.277,112.136,479.901,105.256,475.325,100.68z
			 M399.997,96.008c-8.832,0-16,7.168-16,16v64c0,97.024-78.944,176-176,176h-16v-32h16c79.392,0,144-64.608,144-144v-64
			c0-8.832-7.168-16-16-16h-25.376l57.376-57.376l57.376,57.376H399.997z"/>
	</g>
</g>
<g>
</g>
<g>
</g>
<g>
</g>
<g>
</g>
<g>
</g>
<g>
</g>
<g>
</g>
<g>
</g>
<g>
</g>
<g>
</g>
<g>
</g>
<g>
</g>
<g>
</g>
<g>
</g>
<g>
</g>
</svg>
