<?xml version="1.0" encoding="iso-8859-1"?>
<!-- Generator: Adobe Illustrator 19.0.0, SVG Export Plug-In . SVG Version: 6.00 Build 0)  -->
<svg version="1.1" id="Capa_1" xmlns="http://www.w3.org/2000/svg" xmlns:xlink="http://www.w3.org/1999/xlink" x="0px" y="0px"
	 viewBox="0 0 448 448" style="enable-background:new 0 0 448 448;" xml:space="preserve">
<g>
	<g>
		<path d="M438.112,257.216c-5.984-2.464-12.864-1.12-17.44,3.456l-34.752,34.784L152.544,62.08l34.752-34.784
			c4.608-4.544,5.984-11.456,3.488-17.408C188.288,3.936,182.464,0,176,0H16C7.168,0,0,7.168,0,16v160
			c0,6.464,3.904,12.32,9.888,14.784c5.952,2.432,12.832,1.088,17.44-3.456l34.752-34.784L295.456,385.92l-34.752,34.784
			c-4.608,4.544-5.984,11.456-3.488,17.408c2.496,5.984,8.32,9.888,14.784,9.888h160c8.832,0,16-7.168,16-16V272
			C448,265.536,444.096,259.68,438.112,257.216z M416,416H310.624l18.752-18.784c6.24-6.24,6.24-16.384,0-22.624l-256-256
			c-6.016-6.016-16.64-6.016-22.624,0L32,137.376V32h105.376l-18.752,18.784c-6.24,6.24-6.24,16.384,0,22.624l256,256
			c6.016,6.016,16.64,6.016,22.624,0L416,310.624V416z"/>
	</g>
</g>
<g>
</g>
<g>
</g>
<g>
</g>
<g>
</g>
<g>
</g>
<g>
</g>
<g>
</g>
<g>
</g>
<g>
</g>
<g>
</g>
<g>
</g>
<g>
</g>
<g>
</g>
<g>
</g>
<g>
</g>
</svg>
