<?xml version="1.0" encoding="iso-8859-1"?>
<!-- Generator: Adobe Illustrator 19.0.0, SVG Export Plug-In . SVG Version: 6.00 Build 0)  -->
<svg version="1.1" id="Capa_1" xmlns="http://www.w3.org/2000/svg" xmlns:xlink="http://www.w3.org/1999/xlink" x="0px" y="0px"
	 viewBox="0 0 512 512" style="enable-background:new 0 0 512 512;" xml:space="preserve">
<g>
	<g>
		<path d="M464,320h-64c-8.832,0-16,7.168-16,16v80H128v-80c0-8.832-7.168-16-16-16H48c-8.832,0-16,7.168-16,16v128
			c0,26.464,21.536,48,48,48h352c26.464,0,48-21.536,48-48V336C480,327.168,472.832,320,464,320z M448,464c0,8.8-7.168,16-16,16H80
			c-8.832,0-16-7.2-16-16V352h32v80c0,8.832,7.168,16,16,16h288c8.832,0,16-7.168,16-16v-80h32V464z"/>
	</g>
</g>
<g>
	<g>
		<path d="M464,0h-32C317.312,0,224,93.312,224,208v48h-48c-6.464,0-12.32,3.904-14.784,9.888c-2.496,5.952-1.12,12.864,3.456,17.44
			l96,96C263.808,382.432,267.904,384,272,384s8.192-1.568,11.328-4.672l96-96c4.576-4.576,5.952-11.456,3.456-17.44
			C380.32,259.904,374.464,256,368,256h-48v-48c0-61.76,50.24-112,112-112h32c8.832,0,16-7.168,16-16V16C480,7.168,472.832,0,464,0z
			 M448,64h-16c-79.392,0-144,64.608-144,144v64c0,8.832,7.168,16,16,16h25.376L272,345.376L214.624,288H240c8.832,0,16-7.168,16-16
			v-64c0-97.024,78.944-176,176-176h16V64z"/>
	</g>
</g>
<g>
</g>
<g>
</g>
<g>
</g>
<g>
</g>
<g>
</g>
<g>
</g>
<g>
</g>
<g>
</g>
<g>
</g>
<g>
</g>
<g>
</g>
<g>
</g>
<g>
</g>
<g>
</g>
<g>
</g>
</svg>
