<?xml version="1.0" encoding="iso-8859-1"?>
<!-- Generator: Adobe Illustrator 19.0.0, SVG Export Plug-In . SVG Version: 6.00 Build 0)  -->
<svg version="1.1" id="Capa_1" xmlns="http://www.w3.org/2000/svg" xmlns:xlink="http://www.w3.org/1999/xlink" x="0px" y="0px"
	 viewBox="0 0 512.026 512.026" style="enable-background:new 0 0 512.026 512.026;" xml:space="preserve">
<g>
	<g>
		<path d="M464.013,272.026h-96c-8.832,0-16,7.168-16,16c0,52.928-43.072,96-96,96c-52.928,0-96-43.072-96-96
			c0-52.928,43.072-96,96-96v48c0,6.688,4.16,12.672,10.464,15.008c6.24,2.304,13.344,0.512,17.696-4.608l96-112
			c5.152-5.984,5.152-14.816,0-20.8l-96-112c-4.352-5.12-11.456-6.976-17.696-4.608c-6.304,2.336-10.464,8.32-10.464,15.008v48
			c-123.52,0-224,100.48-224,224s100.48,224,224,224s224-100.48,224-224C480.013,279.194,472.845,272.026,464.013,272.026z
			 M256.013,480.026c-105.888,0-192-86.112-192-192s86.112-192,192-192h16c8.832,0,16-7.168,16-16V59.29l58.912,68.736
			l-58.912,68.736v-20.736c0-8.832-7.168-16-16-16h-16c-70.592,0-128,57.408-128,128s57.408,128,128,128
			c65.152,0,119.104-48.96,127.008-112h64.352C439.213,402.426,356.493,480.026,256.013,480.026z"/>
	</g>
</g>
<g>
</g>
<g>
</g>
<g>
</g>
<g>
</g>
<g>
</g>
<g>
</g>
<g>
</g>
<g>
</g>
<g>
</g>
<g>
</g>
<g>
</g>
<g>
</g>
<g>
</g>
<g>
</g>
<g>
</g>
</svg>
