<?xml version="1.0" encoding="iso-8859-1"?>
<!-- Generator: Adobe Illustrator 19.0.0, SVG Export Plug-In . SVG Version: 6.00 Build 0)  -->
<svg version="1.1" id="Capa_1" xmlns="http://www.w3.org/2000/svg" xmlns:xlink="http://www.w3.org/1999/xlink" x="0px" y="0px"
	 viewBox="0 0 512 512" style="enable-background:new 0 0 512 512;" xml:space="preserve">
<g>
	<g>
		<path d="M506.528,131.962l-128-112c-4.704-4.128-11.392-5.12-17.152-2.528c-5.728,2.592-9.376,8.288-9.376,14.56v48
			c-194.08,0-352,157.92-352,352v48c0,8.832,7.168,16,16,16h96c8.832,0,16-7.168,16-16v-48c0-123.52,100.512-224,224-224v48
			c0,6.272,3.648,11.968,9.376,14.56c5.728,2.592,12.448,1.632,17.152-2.528l128-112c3.488-3.04,5.472-7.424,5.472-12.032
			C512,139.386,509.984,135.002,506.528,131.962z M384,220.73v-28.736c0-8.832-7.168-16-16-16h-16c-141.152,0-256,114.848-256,256
			v32H32v-32c0-176.448,143.552-320,320-320h16c8.832,0,16-7.168,16-16V67.258l87.68,76.736L384,220.73z"/>
	</g>
</g>
<g>
</g>
<g>
</g>
<g>
</g>
<g>
</g>
<g>
</g>
<g>
</g>
<g>
</g>
<g>
</g>
<g>
</g>
<g>
</g>
<g>
</g>
<g>
</g>
<g>
</g>
<g>
</g>
<g>
</g>
</svg>
