<?xml version="1.0" encoding="iso-8859-1"?>
<!-- Generator: Adobe Illustrator 19.0.0, SVG Export Plug-In . SVG Version: 6.00 Build 0)  -->
<svg version="1.1" id="Capa_1" xmlns="http://www.w3.org/2000/svg" xmlns:xlink="http://www.w3.org/1999/xlink" x="0px" y="0px"
	 viewBox="0 0 512.006 512.006" style="enable-background:new 0 0 512.006 512.006;" xml:space="preserve">
<g>
	<g>
		<path d="M331.32,388.679l-64-64c-3.008-2.976-7.072-4.672-11.328-4.672h-96v-96h48c6.464,0,12.32-3.904,14.784-9.888
			s1.088-12.864-3.456-17.44l-96-96c-6.24-6.24-16.384-6.24-22.624,0l-96,96c-4.576,4.576-5.952,11.488-3.488,17.44
			c2.464,5.952,8.32,9.888,14.784,9.888h48v112c0,44.128,35.872,80,80,80h176c6.464,0,12.32-3.904,14.784-9.888
			S335.864,393.255,331.32,388.679z M143.992,384.007c-26.464,0-48-21.536-48-48v-128c0-8.832-7.168-16-16-16H54.616l57.376-57.376
			l57.376,57.376h-25.376c-8.832,0-16,7.168-16,16v128c0,8.832,7.168,16,16,16h105.376l32,32H143.992z"/>
	</g>
</g>
<g>
	<g>
		<path d="M510.776,297.895c-2.496-5.984-8.32-9.888-14.784-9.888h-48v-112c0-44.128-35.872-80-80-80h-176
			c-6.464,0-12.32,3.904-14.784,9.888s-1.088,12.864,3.456,17.44l64,64c3.008,2.976,7.072,4.672,11.328,4.672h96v96h-48
			c-6.464,0-12.32,3.904-14.784,9.888s-1.088,12.864,3.456,17.44l96,96c3.136,3.104,7.232,4.672,11.328,4.672
			s8.192-1.568,11.328-4.672l96-96C511.896,310.759,513.272,303.879,510.776,297.895z M399.992,377.383l-57.376-57.376h25.376
			c8.832,0,16-7.168,16-16v-128c0-8.832-7.168-16-16-16H262.616l-32-32h137.376c26.464,0,48,21.536,48,48v128
			c0,8.832,7.168,16,16,16h25.376L399.992,377.383z"/>
	</g>
</g>
<g>
</g>
<g>
</g>
<g>
</g>
<g>
</g>
<g>
</g>
<g>
</g>
<g>
</g>
<g>
</g>
<g>
</g>
<g>
</g>
<g>
</g>
<g>
</g>
<g>
</g>
<g>
</g>
<g>
</g>
</svg>
