<?xml version="1.0" encoding="iso-8859-1"?>
<!-- Generator: Adobe Illustrator 19.0.0, SVG Export Plug-In . SVG Version: 6.00 Build 0)  -->
<svg version="1.1" id="Capa_1" xmlns="http://www.w3.org/2000/svg" xmlns:xlink="http://www.w3.org/1999/xlink" x="0px" y="0px"
	 viewBox="0 0 512 512" style="enable-background:new 0 0 512 512;" xml:space="preserve">
<g>
	<g>
		<path d="M506.24,371.701l-96-80c-4.768-4-11.424-4.8-17.024-2.208c-5.632,2.656-9.216,8.288-9.216,14.496v32h-40l-60-80l60-80h40
			v32c0,6.208,3.584,11.84,9.216,14.496c5.6,2.592,12.256,1.792,17.024-2.208l96-80c3.68-3.04,5.76-7.552,5.76-12.288
			c0-4.736-2.08-9.248-5.76-12.288l-96-80c-4.768-4-11.424-4.768-17.024-2.208C387.584,36.149,384,41.781,384,47.989v32h-80
			c-5.024,0-9.792,2.368-12.768,6.4l-67.264,89.568L156.8,86.389c-3.008-4.032-7.776-6.4-12.8-6.4H16c-8.832,0-16,7.168-16,16v64
			c0,8.832,7.168,16,16,16h88l60,80l-60,80H16c-8.832,0-16,7.168-16,16v64c0,8.832,7.168,16,16,16h128
			c5.024,0,9.792-2.368,12.768-6.4L224,336.021l67.2,89.568c3.008,4.032,7.776,6.4,12.8,6.4h80v32c0,6.208,3.584,11.84,9.216,14.496
			c2.144,0.992,4.48,1.504,6.784,1.504c3.68,0,7.328-1.248,10.24-3.712l96-80c3.68-3.04,5.76-7.552,5.76-12.288
			C512,379.253,509.92,374.741,506.24,371.701z M312,111.989h88c8.832,0,16-7.168,16-16V82.133l55.008,45.856L416,173.845v-13.856
			c0-8.832-7.168-16-16-16h-64c-5.024,0-9.792,2.368-12.8,6.4L264,229.301l-20.032-26.72L312,111.989z M136,399.989H32v-32h80
			c5.024,0,9.792-2.368,12.8-6.4l59.2-78.912l20.032,26.72L136,399.989z M416,429.845v-13.856c0-8.832-7.168-16-16-16h-88
			l-187.2-249.6c-3.008-4.032-7.776-6.4-12.8-6.4H32v-32h104l187.2,249.6c3.008,4.032,7.776,6.4,12.8,6.4h64c8.832,0,16-7.168,16-16
			v-13.856l55.008,45.856L416,429.845z"/>
	</g>
</g>
<g>
</g>
<g>
</g>
<g>
</g>
<g>
</g>
<g>
</g>
<g>
</g>
<g>
</g>
<g>
</g>
<g>
</g>
<g>
</g>
<g>
</g>
<g>
</g>
<g>
</g>
<g>
</g>
<g>
</g>
</svg>
