<?xml version="1.0" encoding="iso-8859-1"?>
<!-- Generator: Adobe Illustrator 19.0.0, SVG Export Plug-In . SVG Version: 6.00 Build 0)  -->
<svg version="1.1" id="Capa_1" xmlns="http://www.w3.org/2000/svg" xmlns:xlink="http://www.w3.org/1999/xlink" x="0px" y="0px"
	 viewBox="0 0 511.992 511.992" style="enable-background:new 0 0 511.992 511.992;" xml:space="preserve">
<g>
	<g>
		<path d="M508.128,245.602l-96-112c-4.384-5.12-11.456-6.944-17.696-4.608C388.16,131.33,384,137.314,384,144.002v49.888
			L14.016,240.13C6.016,241.122,0,247.938,0,256.002c0,8.064,6.016,14.88,14.016,15.872L384,318.114v49.888
			c0,6.688,4.16,12.672,10.464,15.008c1.792,0.672,3.68,0.992,5.536,0.992c4.576,0,9.056-1.984,12.128-5.6l96-112
			C513.28,260.418,513.28,251.586,508.128,245.602z M416,324.738v-20.736c0-8.064-6.016-14.88-14.016-15.872l-256.992-32.128
			l256.992-32.128c8-0.992,14.016-7.808,14.016-15.872v-20.736l58.912,68.736L416,324.738z"/>
	</g>
</g>
<g>
</g>
<g>
</g>
<g>
</g>
<g>
</g>
<g>
</g>
<g>
</g>
<g>
</g>
<g>
</g>
<g>
</g>
<g>
</g>
<g>
</g>
<g>
</g>
<g>
</g>
<g>
</g>
<g>
</g>
</svg>
