<?xml version="1.0" encoding="iso-8859-1"?>
<!-- Generator: Adobe Illustrator 19.0.0, SVG Export Plug-In . SVG Version: 6.00 Build 0)  -->
<svg version="1.1" id="Capa_1" xmlns="http://www.w3.org/2000/svg" xmlns:xlink="http://www.w3.org/1999/xlink" x="0px" y="0px"
	 viewBox="0 0 512 512" style="enable-background:new 0 0 512 512;" xml:space="preserve">
<g>
	<g>
		<path d="M378.397,99.84l-112-96c-6.016-5.12-14.816-5.12-20.8,0l-112,96c-5.088,4.384-6.944,11.456-4.608,17.728
			S137.309,128,143.997,128h48v144c0,8.832,7.168,16,16,16h96c8.832,0,16-7.168,16-16V128h48c6.688,0,12.672-4.16,15.008-10.432
			S383.517,104.224,378.397,99.84z M303.997,96c-8.832,0-16,7.168-16,16v144h-64V112c0-8.832-7.168-16-16-16h-20.736l68.736-58.944
			L324.733,96H303.997z"/>
	</g>
</g>
<g>
	<g>
		<path d="M255.997,320c-52.928,0-96,43.072-96,96c0,52.928,43.072,96,96,96c52.928,0,96-43.072,96-96
			C351.997,363.072,308.925,320,255.997,320z M255.997,480c-35.296,0-64-28.704-64-64c0-35.296,28.704-64,64-64s64,28.704,64,64
			C319.997,451.296,291.293,480,255.997,480z"/>
	</g>
</g>
<g>
</g>
<g>
</g>
<g>
</g>
<g>
</g>
<g>
</g>
<g>
</g>
<g>
</g>
<g>
</g>
<g>
</g>
<g>
</g>
<g>
</g>
<g>
</g>
<g>
</g>
<g>
</g>
<g>
</g>
</svg>
