<?xml version="1.0" encoding="iso-8859-1"?>
<!-- Generator: Adobe Illustrator 19.0.0, SVG Export Plug-In . SVG Version: 6.00 Build 0)  -->
<svg version="1.1" id="Capa_1" xmlns="http://www.w3.org/2000/svg" xmlns:xlink="http://www.w3.org/1999/xlink" x="0px" y="0px"
	 viewBox="0 0 512 512" style="enable-background:new 0 0 512 512;" xml:space="preserve">
<g>
	<g>
		<path d="M506.24,243.58l-96-80c-4.768-4-11.424-4.768-17.024-2.208c-5.632,2.656-9.216,8.288-9.216,14.496v32h-80v-80h32
			c6.208,0,11.84-3.584,14.496-9.216c2.624-5.632,1.792-12.256-2.208-17.024l-80-96c-6.048-7.328-18.496-7.328-24.576,0l-80,96
			c-4,4.768-4.832,11.392-2.208,17.024c2.656,5.632,8.288,9.216,14.496,9.216h32v80h-80v-32c0-6.208-3.584-11.84-9.216-14.496
			c-5.6-2.592-12.256-1.824-17.024,2.208l-96,80C2.08,246.62,0,251.132,0,255.868c0,4.736,2.08,9.248,5.76,12.288l96,80
			c4.8,4,11.456,4.832,17.024,2.208c5.632-2.656,9.216-8.288,9.216-14.496v-32h80v80h-32c-6.208,0-11.84,3.584-14.496,9.216
			c-2.624,5.632-1.792,12.256,2.208,17.024l80,96c3.04,3.68,7.552,5.76,12.288,5.76c4.736,0,9.248-2.08,12.288-5.76l80-96
			c4-4.768,4.832-11.392,2.208-17.024c-2.656-5.632-8.288-9.216-14.496-9.216h-32v-80h80v32c0,6.208,3.584,11.84,9.216,14.496
			c5.6,2.592,12.256,1.792,17.024-2.208l96-80c3.68-3.04,5.76-7.552,5.76-12.288C512,251.132,509.92,246.62,506.24,243.58z
			 M416,301.724v-13.856c0-8.832-7.168-16-16-16H288c-8.832,0-16,7.168-16,16v112c0,8.832,7.168,16,16,16h13.856L256,470.876
			l-45.856-55.008H224c8.832,0,16-7.168,16-16v-112c0-8.832-7.168-16-16-16H112c-8.832,0-16,7.168-16,16v13.856l-55.008-45.856
			L96,210.012v13.856c0,8.832,7.168,16,16,16h112c8.832,0,16-7.168,16-16v-112c0-8.832-7.168-16-16-16h-13.856L256,40.86
			l45.856,55.008H288c-8.832,0-16,7.168-16,16v112c0,8.832,7.168,16,16,16h112c8.832,0,16-7.168,16-16v-13.856l55.008,45.856
			L416,301.724z"/>
	</g>
</g>
<g>
</g>
<g>
</g>
<g>
</g>
<g>
</g>
<g>
</g>
<g>
</g>
<g>
</g>
<g>
</g>
<g>
</g>
<g>
</g>
<g>
</g>
<g>
</g>
<g>
</g>
<g>
</g>
<g>
</g>
</svg>
