<?xml version="1.0" encoding="iso-8859-1"?>
<!-- Generator: Adobe Illustrator 19.0.0, SVG Export Plug-In . SVG Version: 6.00 Build 0)  -->
<svg version="1.1" id="Capa_1" xmlns="http://www.w3.org/2000/svg" xmlns:xlink="http://www.w3.org/1999/xlink" x="0px" y="0px"
	 viewBox="0 0 512.016 512.016" style="enable-background:new 0 0 512.016 512.016;" xml:space="preserve">
<g>
	<g>
		<path d="M208.008,0.008c-8.832,0-16,7.168-16,16v224h-64v-80c0-6.464-3.904-12.32-9.888-14.784
			c-5.92-2.464-12.832-1.12-17.44,3.456l-96,96c-6.24,6.24-6.24,16.384,0,22.624l96,96c3.072,3.072,7.168,4.704,11.328,4.704
			c2.048,0,4.16-0.416,6.112-1.216c5.984-2.464,9.888-8.32,9.888-14.784v-80h64v224c0,8.832,7.168,16,16,16c8.832,0,16-7.168,16-16
			v-480C224.008,7.176,216.84,0.008,208.008,0.008z M96.008,313.384l-57.376-57.376l57.376-57.376V313.384z"/>
	</g>
</g>
<g>
	<g>
		<path d="M507.336,244.712l-96-96.032c-4.576-4.576-11.488-5.92-17.44-3.456c-5.984,2.464-9.888,8.32-9.888,14.784v80h-64v-224
			c0-8.832-7.168-16-16-16c-8.832,0-16,7.168-16,16v480c0,8.832,7.168,16,16,16c8.832,0,16-7.168,16-16v-224h64v80
			c0,6.464,3.904,12.32,9.888,14.784c1.952,0.8,4.064,1.216,6.112,1.216c4.16,0,8.256-1.632,11.328-4.672l96-96
			C513.576,261.096,513.576,250.952,507.336,244.712z M416.008,313.384V198.632l57.376,57.376L416.008,313.384z"/>
	</g>
</g>
<g>
</g>
<g>
</g>
<g>
</g>
<g>
</g>
<g>
</g>
<g>
</g>
<g>
</g>
<g>
</g>
<g>
</g>
<g>
</g>
<g>
</g>
<g>
</g>
<g>
</g>
<g>
</g>
<g>
</g>
</svg>
