<?xml version="1.0" encoding="iso-8859-1"?>
<!-- Generator: Adobe Illustrator 19.0.0, SVG Export Plug-In . SVG Version: 6.00 Build 0)  -->
<svg version="1.1" id="Capa_1" xmlns="http://www.w3.org/2000/svg" xmlns:xlink="http://www.w3.org/1999/xlink" x="0px" y="0px"
	 viewBox="0 0 512.01 512.01" style="enable-background:new 0 0 512.01 512.01;" xml:space="preserve">
<g>
	<g>
		<path d="M506.889,244.294l-224-208c-4.672-4.352-11.488-5.504-17.28-2.944c-5.824,2.528-9.6,8.288-9.6,14.656v112h-240
			c-6.144,0-11.744,3.52-14.432,9.056c-2.656,5.536-1.92,12.128,1.92,16.928l56.032,70.016l-56,70.016
			c-3.84,4.8-4.576,11.392-1.92,16.928c2.656,5.536,8.256,9.056,14.4,9.056h240v112c0,6.368,3.776,12.128,9.6,14.656
			c2.048,0.896,4.256,1.344,6.4,1.344c3.968,0,7.872-1.472,10.88-4.288l224-208c3.264-3.008,5.12-7.264,5.12-11.712
			S510.154,247.302,506.889,244.294z M288.009,427.334v-91.328c0-8.832-7.168-16-16-16H49.322l43.2-54.016
			c4.672-5.856,4.672-14.144,0-20l-43.2-53.984h222.688c8.832,0,16-7.168,16-16V84.678l184.48,171.328L288.009,427.334z"/>
	</g>
</g>
<g>
</g>
<g>
</g>
<g>
</g>
<g>
</g>
<g>
</g>
<g>
</g>
<g>
</g>
<g>
</g>
<g>
</g>
<g>
</g>
<g>
</g>
<g>
</g>
<g>
</g>
<g>
</g>
<g>
</g>
</svg>
