<?xml version="1.0" encoding="iso-8859-1"?>
<!-- Generator: Adobe Illustrator 19.0.0, SVG Export Plug-In . SVG Version: 6.00 Build 0)  -->
<svg version="1.1" id="Capa_1" xmlns="http://www.w3.org/2000/svg" xmlns:xlink="http://www.w3.org/1999/xlink" x="0px" y="0px"
	 viewBox="0 0 448 448" style="enable-background:new 0 0 448 448;" xml:space="preserve">
<g>
	<g>
		<path d="M313.376,211.04l-288-208c-4.832-3.52-11.328-4-16.672-1.28C3.36,4.48,0,9.984,0,16v416c0,6.016,3.36,11.52,8.704,14.24
			c2.304,1.184,4.8,1.76,7.296,1.76c3.328,0,6.592-1.024,9.376-3.04l288-208c4.16-2.976,6.624-7.808,6.624-12.96
			C320,218.848,317.536,214.016,313.376,211.04z M32,400.704V47.296L276.672,224L32,400.704z"/>
	</g>
</g>
<g>
	<g>
		<path d="M432,0h-64c-8.832,0-16,7.168-16,16v416c0,8.832,7.168,16,16,16h64c8.832,0,16-7.168,16-16V16C448,7.168,440.832,0,432,0z
			 M416,416h-32V32h32V416z"/>
	</g>
</g>
<g>
</g>
<g>
</g>
<g>
</g>
<g>
</g>
<g>
</g>
<g>
</g>
<g>
</g>
<g>
</g>
<g>
</g>
<g>
</g>
<g>
</g>
<g>
</g>
<g>
</g>
<g>
</g>
<g>
</g>
</svg>
