<?xml version="1.0" encoding="iso-8859-1"?>
<!-- Generator: Adobe Illustrator 19.0.0, SVG Export Plug-In . SVG Version: 6.00 Build 0)  -->
<svg version="1.1" id="Capa_1" xmlns="http://www.w3.org/2000/svg" xmlns:xlink="http://www.w3.org/1999/xlink" x="0px" y="0px"
	 viewBox="0 0 512 512" style="enable-background:new 0 0 512 512;" xml:space="preserve">
<g>
	<g>
		<path d="M508.16,245.6l-96-112c-4.384-5.088-11.424-6.912-17.728-4.608C388.16,131.328,384,137.312,384,144v48h-96V16
			c0-8.832-7.168-16-16-16H16C7.168,0,0,7.168,0,16v480c0,8.832,7.168,16,16,16h256c8.832,0,16-7.168,16-16V320h96v48
			c0,6.688,4.16,12.672,10.432,15.008c6.272,2.336,13.344,0.512,17.728-4.608l96-112C513.28,260.416,513.28,251.584,508.16,245.6z
			 M416,324.736V304c0-8.832-7.168-16-16-16H272c-8.832,0-16,7.168-16,16v176H32V32h224v176c0,8.832,7.168,16,16,16h128
			c8.832,0,16-7.168,16-16v-20.736L474.944,256L416,324.736z"/>
	</g>
</g>
<g>
</g>
<g>
</g>
<g>
</g>
<g>
</g>
<g>
</g>
<g>
</g>
<g>
</g>
<g>
</g>
<g>
</g>
<g>
</g>
<g>
</g>
<g>
</g>
<g>
</g>
<g>
</g>
<g>
</g>
</svg>
