<?xml version="1.0" encoding="iso-8859-1"?>
<!-- Generator: Adobe Illustrator 19.0.0, SVG Export Plug-In . SVG Version: 6.00 Build 0)  -->
<svg version="1.1" id="Capa_1" xmlns="http://www.w3.org/2000/svg" xmlns:xlink="http://www.w3.org/1999/xlink" x="0px" y="0px"
	 viewBox="0 0 512 512" style="enable-background:new 0 0 512 512;" xml:space="preserve">
<g>
	<g>
		<path d="M506.72,244.098l-160-144c-4.672-4.224-11.456-5.28-17.216-2.72c-5.792,2.592-9.504,8.32-9.504,14.624v80H64
			c-35.296,0-64,28.704-64,64v96c0,35.296,28.704,64,64,64h112c8.832,0,16-7.168,16-16v-80h128v80
			c0,6.304,3.712,12.032,9.504,14.624c2.08,0.928,4.288,1.376,6.496,1.376c3.872,0,7.712-1.408,10.72-4.096l160-144
			c3.328-3.04,5.28-7.36,5.28-11.904S510.048,247.138,506.72,244.098z M160,384.002H64c-17.664,0-32-14.368-32-32
			c0-17.632,14.336-32,32-32h96V384.002z M352,364.066v-60.064c0-8.832-7.168-16-16-16H176H64c-11.648,0-22.592,3.136-32,8.608
			v-40.608c0-17.632,14.336-32,32-32h272c8.832,0,16-7.168,16-16v-60.064l120.096,108.064L352,364.066z"/>
	</g>
</g>
<g>
</g>
<g>
</g>
<g>
</g>
<g>
</g>
<g>
</g>
<g>
</g>
<g>
</g>
<g>
</g>
<g>
</g>
<g>
</g>
<g>
</g>
<g>
</g>
<g>
</g>
<g>
</g>
<g>
</g>
</svg>
