<?xml version="1.0" encoding="iso-8859-1"?>
<!-- Generator: Adobe Illustrator 19.0.0, SVG Export Plug-In . SVG Version: 6.00 Build 0)  -->
<svg version="1.1" id="Capa_1" xmlns="http://www.w3.org/2000/svg" xmlns:xlink="http://www.w3.org/1999/xlink" x="0px" y="0px"
	 viewBox="0 0 512.13 512.13" style="enable-background:new 0 0 512.13 512.13;" xml:space="preserve">
<g>
	<g>
		<path d="M512.065,64.226c0.032-4.256-1.664-8.384-4.672-11.392l-48-48.032c-3.008-2.976-7.104-4.672-11.328-4.672
			c-3.52-0.736-8.448,1.76-11.456,4.832l-68.544,70.4V32.13c0-8.832-7.168-16-16-16h-64c-8.832,0-16,7.168-16,16v192
			c0,8.832,7.168,16,16,16h192c8.832,0,16-7.168,16-16v-64c0-8.832-7.168-16-16-16h-43.2l70.368-68.544
			C510.305,72.578,512.033,68.482,512.065,64.226z M386.337,148.674c-4.672,4.544-6.112,11.456-3.648,17.472
			s8.288,9.984,14.816,9.984h66.56v32h-160v-160h32v66.56c0,6.496,3.936,12.384,9.984,14.816c6.016,2.496,12.928,1.024,17.472-3.648
			l84.672-86.944l25.056,25.056L386.337,148.674z"/>
	</g>
</g>
<g>
	<g>
		<path d="M224.065,16.13h-64c-8.832,0-16,7.168-16,16v43.232l-68.544-70.4C72.513,1.89,67.073-0.094,64.065,0.13
			c-4.224,0-8.32,1.696-11.328,4.672l-48,48c-3.008,3.04-4.704,7.136-4.672,11.424c0.032,4.288,1.76,8.384,4.832,11.36
			l70.368,68.544h-43.2c-8.832,0-16,7.168-16,16v64c0,8.832,7.168,16,16,16h192c8.832,0,16-7.168,16-16v-192
			C240.065,23.298,232.897,16.13,224.065,16.13z M208.065,208.13h-160v-32h66.56c6.528,0,12.384-3.936,14.816-9.984
			c2.432-6.048,0.992-12.928-3.68-17.504L38.849,63.97l25.056-25.056l84.672,86.944c4.576,4.672,11.488,6.144,17.504,3.648
			c6.048-2.432,9.984-8.32,9.984-14.816V48.13h32V208.13z"/>
	</g>
</g>
<g>
	<g>
		<path d="M507.233,436.706l-70.368-68.576h43.2c8.832,0,16-7.168,16-16v-64c0-8.832-7.168-16-16-16h-192c-8.832,0-16,7.168-16,16
			v192c0,8.832,7.168,16,16,16h64c8.832,0,16-7.168,16-16v-43.232l68.544,70.368c3.008,3.104,8.48,4.832,11.456,4.864
			c4.224,0,8.32-1.696,11.328-4.672l48-48c3.04-3.04,4.704-7.136,4.672-11.392C512.033,443.81,510.305,439.682,507.233,436.706z
			 M448.225,473.346l-84.672-86.944c-3.104-3.136-7.264-4.832-11.488-4.832c-2.016,0-4.064,0.384-6.016,1.184
			c-6.016,2.432-9.984,8.32-9.984,14.816v66.56h-32v-160h160v32h-66.56c-6.528,0-12.384,3.936-14.816,9.984
			c-2.432,6.048-0.992,12.928,3.68,17.504l86.944,84.672L448.225,473.346z"/>
	</g>
</g>
<g>
	<g>
		<path d="M224.065,272.13h-192c-8.832,0-16,7.168-16,16v64c0,8.832,7.168,16,16,16h43.2L4.897,436.674
			c-3.072,2.976-4.8,7.072-4.832,11.36c-0.032,4.288,1.664,8.384,4.672,11.392l48,48.032c3.008,2.976,7.104,4.672,11.328,4.672
			c0.032,0,0.064,0,0.096,0c4.288-0.032,8.352-1.792,11.36-4.832l68.544-70.4v43.232c0,8.832,7.168,16,16,16h64
			c8.832,0,16-7.168,16-16v-192C240.065,279.298,232.897,272.13,224.065,272.13z M208.065,464.13h-32v-66.56
			c0-6.496-3.936-12.384-9.984-14.816c-6.016-2.496-12.928-0.992-17.472,3.648l-84.672,86.944L38.881,448.29l86.912-84.704
			c4.672-4.544,6.112-11.456,3.648-17.472c-2.464-6.016-8.288-9.984-14.816-9.984h-66.56v-32h160V464.13z"/>
	</g>
</g>
<g>
</g>
<g>
</g>
<g>
</g>
<g>
</g>
<g>
</g>
<g>
</g>
<g>
</g>
<g>
</g>
<g>
</g>
<g>
</g>
<g>
</g>
<g>
</g>
<g>
</g>
<g>
</g>
<g>
</g>
</svg>
