<?xml version="1.0" encoding="iso-8859-1"?>
<!-- Generator: Adobe Illustrator 19.0.0, SVG Export Plug-In . SVG Version: 6.00 Build 0)  -->
<svg version="1.1" id="Capa_1" xmlns="http://www.w3.org/2000/svg" xmlns:xlink="http://www.w3.org/1999/xlink" x="0px" y="0px"
	 viewBox="0 0 480 480" style="enable-background:new 0 0 480 480;" xml:space="preserve">
<g>
	<g>
		<path d="M464,0H328.224c-6.464,0-12.32,3.904-14.784,9.888c-2.496,5.984-1.12,12.864,3.456,17.44l33.952,33.952L181.152,230.976
			c-6.24,6.24-6.24,16.384,0,22.624l45.248,45.248c3.136,3.136,7.232,4.672,11.328,4.672s8.192-1.568,11.328-4.672L418.784,129.12
			l33.952,33.952c4.576,4.608,11.456,5.952,17.44,3.456c5.92-2.464,9.824-8.32,9.824-14.784V16C480,7.168,472.832,0,464,0z
			 M448,113.12l-17.952-17.952c-6.24-6.24-16.384-6.24-22.624,0L237.728,264.896l-22.624-22.624L384.8,72.544
			c6.24-6.24,6.24-16.384,0-22.624L366.848,32H448V113.12z"/>
	</g>
</g>
<g>
	<g>
		<path d="M464,192c-8.832,0-16,7.168-16,16v240H32V32h240c8.832,0,16-7.168,16-16c0-8.832-7.168-16-16-16H16C7.168,0,0,7.168,0,16
			v448c0,8.832,7.168,16,16,16h448c8.832,0,16-7.168,16-16V208C480,199.168,472.832,192,464,192z"/>
	</g>
</g>
<g>
</g>
<g>
</g>
<g>
</g>
<g>
</g>
<g>
</g>
<g>
</g>
<g>
</g>
<g>
</g>
<g>
</g>
<g>
</g>
<g>
</g>
<g>
</g>
<g>
</g>
<g>
</g>
<g>
</g>
</svg>
