<?xml version="1.0" encoding="iso-8859-1"?>
<!-- Generator: Adobe Illustrator 19.0.0, SVG Export Plug-In . SVG Version: 6.00 Build 0)  -->
<svg version="1.1" id="Capa_1" xmlns="http://www.w3.org/2000/svg" xmlns:xlink="http://www.w3.org/1999/xlink" x="0px" y="0px"
	 viewBox="0 0 512 512" style="enable-background:new 0 0 512 512;" xml:space="preserve">
<g>
	<g>
		<path d="M496,0H304c-8.832,0-16,7.168-16,16v64c0,8.832,7.168,16,16,16h43.936L96,347.936V304c0-8.832-7.168-16-16-16H16
			c-8.832,0-16,7.168-16,16v192c0,8.832,7.168,16,16,16h192c8.832,0,16-7.168,16-16v-64c0-8.832-7.168-16-16-16h-43.936L416,164.064
			V208c0,8.832,7.168,16,16,16h64c8.832,0,16-7.168,16-16V16C512,7.168,504.832,0,496,0z M480,192h-32v-66.56
			c0-6.464-3.904-12.32-9.888-14.784c-5.984-2.432-12.864-1.088-17.44,3.456l-306.56,306.56c-4.576,4.576-5.952,11.456-3.456,17.44
			c2.464,5.984,8.32,9.888,14.784,9.888H192v32H32V320h32v66.56c0,6.464,3.904,12.32,9.888,14.784
			c5.984,2.432,12.864,1.088,17.44-3.456l306.56-306.56c4.576-4.576,5.952-11.456,3.456-17.44C398.88,67.904,393.024,64,386.56,64
			H320V32h160V192z"/>
	</g>
</g>
<g>
</g>
<g>
</g>
<g>
</g>
<g>
</g>
<g>
</g>
<g>
</g>
<g>
</g>
<g>
</g>
<g>
</g>
<g>
</g>
<g>
</g>
<g>
</g>
<g>
</g>
<g>
</g>
<g>
</g>
</svg>
