<?xml version="1.0" encoding="iso-8859-1"?>
<!-- Generator: Adobe Illustrator 19.0.0, SVG Export Plug-In . SVG Version: 6.00 Build 0)  -->
<svg version="1.1" id="Capa_1" xmlns="http://www.w3.org/2000/svg" xmlns:xlink="http://www.w3.org/1999/xlink" x="0px" y="0px"
	 viewBox="0 0 512 512" style="enable-background:new 0 0 512 512;" xml:space="preserve">
<g>
	<g>
		<path d="M383.008,170.432C380.672,164.16,374.688,160,368,160h-48V16c0-8.832-7.168-16-16-16h-96c-8.832,0-16,7.168-16,16v144h-48
			c-6.688,0-12.672,4.16-15.008,10.432c-2.336,6.272-0.48,13.344,4.608,17.728l112,96c3.008,2.56,6.688,3.84,10.4,3.84
			c3.712,0,7.392-1.28,10.4-3.84l112-96C383.488,183.776,385.344,176.736,383.008,170.432z M256,250.944L187.264,192H208
			c8.832,0,16-7.168,16-16V32h64v144c0,8.832,7.168,16,16,16h20.736L256,250.944z"/>
	</g>
</g>
<g>
	<g>
		<path d="M256,320c-52.928,0-96,43.072-96,96c0,52.928,43.072,96,96,96c52.928,0,96-43.072,96-96C352,363.072,308.928,320,256,320z
			 M256,480c-35.296,0-64-28.704-64-64c0-35.296,28.704-64,64-64s64,28.704,64,64C320,451.296,291.296,480,256,480z"/>
	</g>
</g>
<g>
</g>
<g>
</g>
<g>
</g>
<g>
</g>
<g>
</g>
<g>
</g>
<g>
</g>
<g>
</g>
<g>
</g>
<g>
</g>
<g>
</g>
<g>
</g>
<g>
</g>
<g>
</g>
<g>
</g>
</svg>
