<?xml version="1.0" encoding="iso-8859-1"?>
<!-- Generator: Adobe Illustrator 19.0.0, SVG Export Plug-In . SVG Version: 6.00 Build 0)  -->
<svg version="1.1" id="Capa_1" xmlns="http://www.w3.org/2000/svg" xmlns:xlink="http://www.w3.org/1999/xlink" x="0px" y="0px"
	 viewBox="0 0 512 512" style="enable-background:new 0 0 512 512;" xml:space="preserve">
<g>
	<g>
		<path d="M378.528,115.966l-128-112c-4.704-4.16-11.392-5.12-17.152-2.528C227.648,4.03,224,9.726,224,15.998v64
			c-123.488,0-224,100.512-224,224c0,41.376,11.424,81.92,33.088,117.184c2.336,3.808,6.176,6.496,10.624,7.328
			c0.992,0.192,2.016,0.288,3.008,0.288c3.424,0,6.784-1.088,9.568-3.2l51.84-38.72c6.496-4.832,8.352-13.792,4.32-20.768
			C101.696,347.422,96,325.982,96,303.998c0-70.592,57.408-128,128-128v64c0,6.272,3.648,11.968,9.376,14.56
			c5.76,2.624,12.448,1.664,17.152-2.528l128-112c3.488-3.04,5.472-7.392,5.472-12.032C384,123.358,381.984,119.006,378.528,115.966
			z M256,204.734v-44.736c0-8.832-7.168-16-16-16h-16c-88.224,0-160,71.776-160,160c0,22.72,4.864,45.024,14.144,65.376
			L51.84,389.022C38.816,362.654,32,333.598,32,303.998c0-105.888,86.112-192,192-192h16c8.832,0,16-7.168,16-16V51.262
			l87.68,76.736L256,204.734z"/>
	</g>
</g>
<g>
	<g>
		<path d="M478.912,90.814c-2.336-3.808-6.208-6.496-10.624-7.36c-4.448-0.832-8.96,0.224-12.576,2.912l-51.84,38.72
			c-6.496,4.832-8.352,13.792-4.32,20.768c10.752,18.72,16.448,40.16,16.448,62.144c0,70.592-57.408,128-128,128v-64
			c0-6.272-3.648-11.968-9.376-14.56c-5.76-2.592-12.448-1.664-17.152,2.528l-128,112c-3.456,3.04-5.472,7.392-5.472,12.032
			s2.016,8.992,5.472,12.032l128,112c2.976,2.624,6.72,3.968,10.528,3.968c2.24,0,4.512-0.48,6.624-1.44
			c5.728-2.592,9.376-8.288,9.376-14.56v-64c123.488,0,224-100.512,224-224C512,166.622,500.576,126.078,478.912,90.814z
			 M288,399.998h-16c-8.832,0-16,7.168-16,16v44.736l-87.68-76.736L256,307.262v44.736c0,8.832,7.168,16,16,16h16
			c88.224,0,160-71.776,160-160c0-22.72-4.864-45.024-14.144-65.376l26.304-19.648c13.024,26.368,19.84,55.424,19.84,85.024
			C480,313.886,393.888,399.998,288,399.998z"/>
	</g>
</g>
<g>
</g>
<g>
</g>
<g>
</g>
<g>
</g>
<g>
</g>
<g>
</g>
<g>
</g>
<g>
</g>
<g>
</g>
<g>
</g>
<g>
</g>
<g>
</g>
<g>
</g>
<g>
</g>
<g>
</g>
</svg>
