<?xml version="1.0" encoding="iso-8859-1"?>
<!-- Generator: Adobe Illustrator 19.0.0, SVG Export Plug-In . SVG Version: 6.00 Build 0)  -->
<svg version="1.1" id="Capa_1" xmlns="http://www.w3.org/2000/svg" xmlns:xlink="http://www.w3.org/1999/xlink" x="0px" y="0px"
	 viewBox="0 0 480 480" style="enable-background:new 0 0 480 480;" xml:space="preserve">
<g>
	<g>
		<path d="M379.328,228.704l-96-96c-4.608-4.576-11.456-5.92-17.44-3.488C259.904,131.68,256,137.536,256,144v48H16
			c-8.832,0-16,7.168-16,16v64c0,8.832,7.168,16,16,16h240v48c0,6.464,3.904,12.32,9.888,14.784c1.984,0.8,4.064,1.216,6.112,1.216
			c4.16,0,8.256-1.632,11.328-4.672l96-96C385.568,245.088,385.568,234.944,379.328,228.704z M288,297.376V272
			c0-8.832-7.168-16-16-16H32v-32h240c8.832,0,16-7.168,16-16v-25.376L345.376,240L288,297.376z"/>
	</g>
</g>
<g>
	<g>
		<path d="M464,0H16C7.168,0,0,7.168,0,16v128c0,8.832,7.168,16,16,16c8.832,0,16-7.168,16-16V32h416v416H32V336
			c0-8.832-7.168-16-16-16c-8.832,0-16,7.168-16,16v128c0,8.832,7.168,16,16,16h448c8.832,0,16-7.168,16-16V16
			C480,7.168,472.832,0,464,0z"/>
	</g>
</g>
<g>
</g>
<g>
</g>
<g>
</g>
<g>
</g>
<g>
</g>
<g>
</g>
<g>
</g>
<g>
</g>
<g>
</g>
<g>
</g>
<g>
</g>
<g>
</g>
<g>
</g>
<g>
</g>
<g>
</g>
</svg>
