<?xml version="1.0" encoding="iso-8859-1"?>
<!-- Generator: Adobe Illustrator 19.0.0, SVG Export Plug-In . SVG Version: 6.00 Build 0)  -->
<svg version="1.1" id="Capa_1" xmlns="http://www.w3.org/2000/svg" xmlns:xlink="http://www.w3.org/1999/xlink" x="0px" y="0px"
	 viewBox="0 0 448 448" style="enable-background:new 0 0 448 448;" xml:space="preserve">
<g>
	<g>
		<path d="M438.144,289.216c-5.984-2.4-12.832-1.088-17.408,3.424l-30.272,30.016l-94.016-94.016c-6.24-6.24-16.384-6.24-22.624,0
			l-45.12,45.12c-6.24,6.24-6.24,16.384,0,22.624L322.72,390.4l-30.048,30.272c-4.544,4.608-5.888,11.456-3.392,17.44
			c2.496,5.984,8.256,9.888,14.72,9.888h128c8.832,0,16-7.168,16-16V304C448,297.536,444.096,291.712,438.144,289.216z M416,416
			h-73.568l14.208-14.304c6.208-6.24,6.176-16.384-0.032-22.592l-93.984-93.984l22.496-22.496l93.984,93.984
			c6.272,6.24,16.384,6.24,22.592,0.032L416,342.432V416z"/>
	</g>
</g>
<g>
	<g>
		<path d="M208,0H16C7.168,0,0,7.168,0,16v192c0,8.832,7.168,16,16,16h192c8.832,0,16-7.168,16-16V16C224,7.168,216.832,0,208,0z
			 M192,192H32V32h160V192z"/>
	</g>
</g>
<g>
</g>
<g>
</g>
<g>
</g>
<g>
</g>
<g>
</g>
<g>
</g>
<g>
</g>
<g>
</g>
<g>
</g>
<g>
</g>
<g>
</g>
<g>
</g>
<g>
</g>
<g>
</g>
<g>
</g>
</svg>
