<?xml version="1.0" encoding="iso-8859-1"?>
<!-- Generator: Adobe Illustrator 19.0.0, SVG Export Plug-In . SVG Version: 6.00 Build 0)  -->
<svg version="1.1" id="Capa_1" xmlns="http://www.w3.org/2000/svg" xmlns:xlink="http://www.w3.org/1999/xlink" x="0px" y="0px"
	 viewBox="0 0 512 512" style="enable-background:new 0 0 512 512;" xml:space="preserve">
<g>
	<g>
		<path d="M496,80.016H336c-8.832,0-16,7.168-16,16c0,8.832,7.168,16,16,16h144v352H128v-144c0-8.832-7.168-16-16-16
			c-8.832,0-16,7.168-16,16v160c0,8.832,7.168,16,16,16h384c8.832,0,16-7.168,16-16v-384C512,87.184,504.832,80.016,496,80.016z"/>
	</g>
</g>
<g>
	<g>
		<path d="M383.84,317.776l-8.448-59.168C360.832,156.784,272.32,80.016,169.472,80.016H160v-48c0-6.272-3.68-11.968-9.376-14.56
			c-5.728-2.656-12.448-1.664-17.152,2.528l-128,112C1.984,135.024,0,139.376,0,144.016s1.984,8.992,5.472,12.032l128,112
			c4.736,4.192,11.456,5.152,17.152,2.528c5.696-2.592,9.376-8.288,9.376-14.56v-48h21.568c61.088,0,116.896,30.944,149.28,82.72
			l23.584,37.76c2.976,4.8,8.192,7.52,13.568,7.52c1.824,0,3.68-0.32,5.472-0.96C380.576,332.464,384.896,325.232,383.84,317.776z
			 M181.568,176.016H144c-8.832,0-16,7.168-16,16v28.736l-87.712-76.736L128,67.28v28.736c0,8.832,7.168,16,16,16h25.472
			c82.88,0,154.752,58.944,172.032,138.976C302.304,203.6,244.288,176.016,181.568,176.016z"/>
	</g>
</g>
<g>
</g>
<g>
</g>
<g>
</g>
<g>
</g>
<g>
</g>
<g>
</g>
<g>
</g>
<g>
</g>
<g>
</g>
<g>
</g>
<g>
</g>
<g>
</g>
<g>
</g>
<g>
</g>
<g>
</g>
</svg>
