<?xml version="1.0" encoding="iso-8859-1"?>
<!-- Generator: Adobe Illustrator 19.0.0, SVG Export Plug-In . SVG Version: 6.00 Build 0)  -->
<svg version="1.1" id="Capa_1" xmlns="http://www.w3.org/2000/svg" xmlns:xlink="http://www.w3.org/1999/xlink" x="0px" y="0px"
	 viewBox="0 0 512 512" style="enable-background:new 0 0 512 512;" xml:space="preserve">
<g>
	<g>
		<path d="M240,336.096c0.032-4.256-1.664-8.384-4.672-11.392l-48-48C184.32,273.696,180.224,272,176,272
			c-3.36-0.064-8.448,1.76-11.456,4.832L96,347.232V304c0-8.832-7.168-16-16-16H16c-8.832,0-16,7.168-16,16v192
			c0,8.832,7.168,16,16,16h192c8.832,0,16-7.168,16-16v-64c0-8.832-7.168-16-16-16h-43.2l70.368-68.544
			C238.24,344.448,239.968,340.352,240,336.096z M114.272,420.512c-4.672,4.576-6.112,11.488-3.648,17.504S118.912,448,125.44,448
			H192v32H32V320h32v66.56c0,6.496,3.936,12.384,9.984,14.816c6.016,2.528,12.96,0.992,17.504-3.648l84.672-86.944l25.056,25.056
			L114.272,420.512z"/>
	</g>
</g>
<g>
	<g>
		<path d="M496,288h-64c-8.832,0-16,7.168-16,16v43.232l-68.544-70.368c-3.008-3.104-8.352-4.384-11.456-4.864
			c-4.224,0-8.32,1.696-11.328,4.672l-48,48c-3.04,3.04-4.704,7.136-4.672,11.392c0.032,4.256,1.76,8.384,4.832,11.36L347.2,416H304
			c-8.832,0-16,7.168-16,16v64c0,8.832,7.168,16,16,16h192c8.832,0,16-7.168,16-16V304C512,295.168,504.832,288,496,288z M480,480
			H320v-32h66.56c6.528,0,12.384-3.936,14.816-9.984c2.432-6.048,0.992-12.928-3.68-17.504l-86.944-84.672l25.056-25.056
			l84.672,86.944c4.576,4.672,11.488,6.176,17.504,3.648c6.08-2.432,10.016-8.32,10.016-14.816V320h32V480z"/>
	</g>
</g>
<g>
	<g>
		<path d="M235.168,164.544L164.8,96H208c8.832,0,16-7.168,16-16V16c0-8.832-7.168-16-16-16H16C7.168,0,0,7.168,0,16v192
			c0,8.832,7.168,16,16,16h64c8.832,0,16-7.168,16-16v-43.232l68.544,70.368c2.976,3.072,7.072,4.832,11.36,4.864
			c0.032,0,0.064,0,0.096,0c4.224,0,8.32-1.696,11.328-4.672l48-48c3.008-3.04,4.704-7.136,4.672-11.424
			C239.968,171.616,238.24,167.52,235.168,164.544z M176.16,201.216l-84.704-86.944c-3.072-3.136-7.232-4.832-11.456-4.832
			c-2.016,0-4.064,0.384-6.016,1.184C67.936,113.056,64,118.944,64,125.44V192H32V32h160v32h-66.56
			c-6.528,0-12.384,3.936-14.816,9.984c-2.432,6.048-1.024,12.928,3.648,17.472l86.944,84.672L176.16,201.216z"/>
	</g>
</g>
<g>
	<g>
		<path d="M496,0H304c-8.832,0-16,7.168-16,16v64c0,8.832,7.168,16,16,16h43.2l-70.368,68.544c-3.072,2.976-4.8,7.072-4.832,11.36
			c-0.032,4.288,1.664,8.384,4.672,11.392l48,48C327.68,238.304,331.776,240,336,240c0.032,0,0.064,0,0.096,0
			c4.288-0.032,8.352-1.792,11.36-4.832l68.544-70.4V208c0,8.832,7.168,16,16,16h64c8.832,0,16-7.168,16-16V16
			C512,7.168,504.832,0,496,0z M480,192h-32v-66.56c0-6.496-3.936-12.384-9.984-14.816c-6.016-2.528-12.928-0.992-17.504,3.648
			l-84.672,86.944l-25.056-25.056l86.944-84.672c4.672-4.576,6.112-11.456,3.68-17.504S393.088,64,386.56,64H320V32h160V192z"/>
	</g>
</g>
<g>
</g>
<g>
</g>
<g>
</g>
<g>
</g>
<g>
</g>
<g>
</g>
<g>
</g>
<g>
</g>
<g>
</g>
<g>
</g>
<g>
</g>
<g>
</g>
<g>
</g>
<g>
</g>
<g>
</g>
</svg>
