<?xml version="1.0" encoding="iso-8859-1"?>
<!-- Generator: Adobe Illustrator 19.0.0, SVG Export Plug-In . SVG Version: 6.00 Build 0)  -->
<svg version="1.1" id="Capa_1" xmlns="http://www.w3.org/2000/svg" xmlns:xlink="http://www.w3.org/1999/xlink" x="0px" y="0px"
	 viewBox="0 0 512.024 512.024" style="enable-background:new 0 0 512.024 512.024;" xml:space="preserve">
<g>
	<g>
		<path d="M508.64,246.188l-112-144c-3.04-3.904-7.712-6.176-12.64-6.176H272c-6.08,0-11.68,3.488-14.368,8.96
			c-2.688,5.472-2.016,12.032,1.728,16.864l54.528,70.176H189.76C85.12,192.012,0,277.132,0,381.772v18.24
			c0,7.424,5.088,13.888,12.32,15.584c1.248,0.288,2.464,0.416,3.68,0.416c5.984,0,11.552-3.328,14.304-8.832
			c26.88-53.792,80.864-87.168,140.896-87.168h142.688l-54.496,70.176c-3.744,4.832-4.448,11.36-1.76,16.832
			c2.688,5.472,8.288,8.992,14.368,8.992h112c4.928,0,9.6-2.272,12.64-6.176l112-144
			C513.152,260.044,513.152,251.948,508.64,246.188z M376.192,384.012h-71.52l54.496-70.176c3.744-4.832,4.448-11.36,1.76-16.832
			c-2.688-5.472-8.256-8.992-14.368-8.992H171.2c-51.68,0-99.68,20.608-134.624,56c16.96-68.8,79.2-120,153.184-120h156.8
			c6.08,0,11.68-3.488,14.368-8.96c2.688-5.472,2.016-12-1.76-16.832l-54.496-70.208h71.488l99.52,128L376.192,384.012z"/>
	</g>
</g>
<g>
</g>
<g>
</g>
<g>
</g>
<g>
</g>
<g>
</g>
<g>
</g>
<g>
</g>
<g>
</g>
<g>
</g>
<g>
</g>
<g>
</g>
<g>
</g>
<g>
</g>
<g>
</g>
<g>
</g>
</svg>
