<?xml version="1.0" encoding="iso-8859-1"?>
<!-- Generator: Adobe Illustrator 19.0.0, SVG Export Plug-In . SVG Version: 6.00 Build 0)  -->
<svg version="1.1" id="Capa_1" xmlns="http://www.w3.org/2000/svg" xmlns:xlink="http://www.w3.org/1999/xlink" x="0px" y="0px"
	 viewBox="0 0 480 480" style="enable-background:new 0 0 480 480;" xml:space="preserve">
<g>
	<g>
		<path d="M474.816,228.206l-192-176c-4.672-4.288-11.456-5.44-17.248-2.848c-5.824,2.56-9.568,8.32-9.568,14.656v352
			c0,6.336,3.744,12.096,9.568,14.656c2.048,0.896,4.256,1.344,6.432,1.344c3.936,0,7.808-1.44,10.816-4.192l192-176
			c3.296-3.04,5.184-7.328,5.184-11.808C480,235.534,478.112,231.246,474.816,228.206z M288,379.63V100.398l152.32,139.616
			L288,379.63z"/>
	</g>
</g>
<g>
	<g>
		<path d="M218.816,228.206l-192-176c-4.672-4.288-11.456-5.44-17.248-2.848C3.744,51.918,0,57.678,0,64.014v352
			c0,6.336,3.744,12.096,9.568,14.656c2.048,0.896,4.256,1.344,6.432,1.344c3.936,0,7.808-1.44,10.816-4.192l192-176
			c3.296-3.04,5.184-7.328,5.184-11.808C224,235.534,222.112,231.246,218.816,228.206z M32,379.63V100.398l152.32,139.616L32,379.63
			z"/>
	</g>
</g>
<g>
</g>
<g>
</g>
<g>
</g>
<g>
</g>
<g>
</g>
<g>
</g>
<g>
</g>
<g>
</g>
<g>
</g>
<g>
</g>
<g>
</g>
<g>
</g>
<g>
</g>
<g>
</g>
<g>
</g>
</svg>
