<?xml version="1.0" encoding="iso-8859-1"?>
<!-- Generator: Adobe Illustrator 19.0.0, SVG Export Plug-In . SVG Version: 6.00 Build 0)  -->
<svg version="1.1" id="Capa_1" xmlns="http://www.w3.org/2000/svg" xmlns:xlink="http://www.w3.org/1999/xlink" x="0px" y="0px"
	 viewBox="0 0 512.024 512.024" style="enable-background:new 0 0 512.024 512.024;" xml:space="preserve">
<g>
	<g>
		<path d="M508.172,245.624l-96-112c-4.352-5.088-11.424-6.912-17.728-4.608c-6.272,2.336-10.432,8.32-10.432,15.008v48h-64v-64h48
			c6.688,0,12.672-4.16,15.008-10.464c2.336-6.272,0.512-13.344-4.608-17.696l-112-96c-6.016-5.152-14.816-5.152-20.8,0l-112,96
			c-5.088,4.352-6.944,11.424-4.608,17.696c2.336,6.304,8.32,10.464,15.008,10.464h48v64h-64v-48c0-6.688-4.16-12.672-10.432-15.008
			c-6.272-2.336-13.344-0.48-17.728,4.608l-96,112c-5.12,5.984-5.12,14.816,0,20.8l96,112c4.384,5.12,11.424,6.912,17.728,4.608
			c6.304-2.304,10.432-8.32,10.432-15.008v-48h64v64h-48c-6.688,0-12.672,4.16-15.008,10.464
			c-2.336,6.272-0.512,13.344,4.608,17.696l112,96c3.008,2.56,6.688,3.84,10.4,3.84c3.712,0,7.392-1.28,10.4-3.872l112-96
			c5.088-4.352,6.944-11.392,4.608-17.696c-2.336-6.272-8.32-10.432-15.008-10.432h-48v-64h64v48c0,6.688,4.16,12.672,10.432,15.008
			c6.272,2.336,13.376,0.512,17.728-4.608l96-112C513.292,260.44,513.292,251.608,508.172,245.624z M416.012,324.76v-20.736
			c0-8.832-7.168-16-16-16h-96c-8.832,0-16,7.168-16,16v96c0,8.832,7.168,16,16,16h20.736l-68.736,58.912l-68.736-58.912h20.736
			c8.832,0,16-7.168,16-16v-96c0-8.832-7.168-16-16-16h-96c-8.832,0-16,7.168-16,16v20.736l-58.944-68.736l58.944-68.736v20.736
			c0,8.832,7.168,16,16,16h96c8.832,0,16-7.168,16-16v-96c0-8.832-7.168-16-16-16h-20.736l68.736-58.912l68.736,58.912h-20.736
			c-8.832,0-16,7.168-16,16v96c0,8.832,7.168,16,16,16h96c8.832,0,16-7.168,16-16v-20.736l58.944,68.736L416.012,324.76z"/>
	</g>
</g>
<g>
</g>
<g>
</g>
<g>
</g>
<g>
</g>
<g>
</g>
<g>
</g>
<g>
</g>
<g>
</g>
<g>
</g>
<g>
</g>
<g>
</g>
<g>
</g>
<g>
</g>
<g>
</g>
<g>
</g>
</svg>
