<?xml version="1.0" encoding="iso-8859-1"?>
<!-- Generator: Adobe Illustrator 19.0.0, SVG Export Plug-In . SVG Version: 6.00 Build 0)  -->
<svg version="1.1" id="Capa_1" xmlns="http://www.w3.org/2000/svg" xmlns:xlink="http://www.w3.org/1999/xlink" x="0px" y="0px"
	 viewBox="0 0 511.992 511.992" style="enable-background:new 0 0 511.992 511.992;" xml:space="preserve">
<g>
	<g>
		<path d="M507.744,245.115l-192-207.968c-4.448-4.864-11.456-6.432-17.568-4.064c-6.144,2.4-10.176,8.32-10.176,14.912v115.84
			L11.712,240.571C4.8,242.491,0,248.795,0,255.995s4.8,13.504,11.712,15.424L288,348.155v115.84
			c0,6.592,4.032,12.512,10.176,14.912c1.888,0.736,3.872,1.088,5.824,1.088c4.384,0,8.672-1.792,11.744-5.152l192-208
			C513.408,260.699,513.408,251.259,507.744,245.115z M320,423.067v-87.072c0-7.2-4.8-13.504-11.712-15.424L75.776,255.995
			l232.512-64.576c6.912-1.92,11.712-8.224,11.712-15.424V88.923l154.208,167.072L320,423.067z"/>
	</g>
</g>
<g>
</g>
<g>
</g>
<g>
</g>
<g>
</g>
<g>
</g>
<g>
</g>
<g>
</g>
<g>
</g>
<g>
</g>
<g>
</g>
<g>
</g>
<g>
</g>
<g>
</g>
<g>
</g>
<g>
</g>
</svg>
