<?xml version="1.0" encoding="iso-8859-1"?>
<!-- Generator: Adobe Illustrator 19.0.0, SVG Export Plug-In . SVG Version: 6.00 Build 0)  -->
<svg version="1.1" id="Capa_1" xmlns="http://www.w3.org/2000/svg" xmlns:xlink="http://www.w3.org/1999/xlink" x="0px" y="0px"
	 viewBox="0 0 512 512" style="enable-background:new 0 0 512 512;" xml:space="preserve">
<g>
	<g>
		<path d="M484.672,187.328c4.608,4.608,11.488,5.952,17.44,3.456C508.096,188.32,512,182.464,512,176V16c0-8.832-7.168-16-16-16
			H336c-6.464,0-12.288,3.904-14.784,9.888c-2.496,5.984-1.12,12.864,3.456,17.44l34.752,34.784L256,165.536L152.544,62.08
			l34.752-34.784c4.608-4.544,5.984-11.456,3.488-17.408C188.288,3.936,182.464,0,176,0H16C7.168,0,0,7.168,0,16v160
			c0,6.464,3.904,12.32,9.888,14.784s12.832,1.12,17.44-3.456l34.752-34.784L165.536,256L62.08,359.456l-34.752-34.784
			c-4.576-4.608-11.424-5.92-17.44-3.456C3.904,323.68,0,329.536,0,336v160c0,8.832,7.168,16,16,16h160
			c6.464,0,12.288-3.904,14.784-9.888c2.496-5.984,1.12-12.864-3.456-17.44l-34.784-34.752L256,346.464l103.456,103.424
			l-34.752,34.784c-4.576,4.576-5.952,11.456-3.456,17.44C323.744,508.096,329.536,512,336,512h160c8.832,0,16-7.168,16-16V336
			c0-6.464-3.904-12.32-9.888-14.784c-5.952-2.464-12.864-1.12-17.44,3.456l-34.752,34.784L346.464,256L449.92,152.544
			L484.672,187.328z M312.512,244.672c-6.24,6.24-6.24,16.384,0,22.624l126.08,126.08c6.016,6.016,16.64,6.016,22.624,0L480,374.624
			V480H374.624l18.752-18.784c6.24-6.24,6.24-16.384,0-22.624l-126.08-126.048c-6.24-6.24-16.384-6.24-22.624,0l-126.08,126.048
			c-6.24,6.24-6.24,16.384,0,22.624L137.376,480H32V374.624l18.752,18.784c3.008,3.008,7.072,4.672,11.328,4.672
			c4.256,0,8.32-1.696,11.328-4.672l126.08-126.08c6.24-6.24,6.24-16.384,0-22.624l-126.08-126.08
			c-6.016-6.016-16.64-6.016-22.624,0L32,137.376V32h105.376l-18.752,18.784c-6.24,6.24-6.24,16.384,0,22.624l126.08,126.048
			c6.24,6.24,16.384,6.24,22.624,0l126.08-126.048c6.24-6.24,6.24-16.384,0-22.624L374.624,32H480v105.376l-18.752-18.784
			c-3.008-3.008-7.072-4.672-11.328-4.672s-8.32,1.696-11.328,4.672L312.512,244.672z"/>
	</g>
</g>
<g>
</g>
<g>
</g>
<g>
</g>
<g>
</g>
<g>
</g>
<g>
</g>
<g>
</g>
<g>
</g>
<g>
</g>
<g>
</g>
<g>
</g>
<g>
</g>
<g>
</g>
<g>
</g>
<g>
</g>
</svg>
