<?xml version="1.0" encoding="iso-8859-1"?>
<!-- Generator: Adobe Illustrator 19.0.0, SVG Export Plug-In . SVG Version: 6.00 Build 0)  -->
<svg version="1.1" id="Capa_1" xmlns="http://www.w3.org/2000/svg" xmlns:xlink="http://www.w3.org/1999/xlink" x="0px" y="0px"
	 viewBox="0 0 512 512" style="enable-background:new 0 0 512 512;" xml:space="preserve">
<g>
	<g>
		<path d="M398.784,233.888C396.288,227.904,390.464,224,384,224h-64V16c0-8.832-7.168-16-16-16h-96c-8.832,0-16,7.168-16,16v208
			h-64c-6.464,0-12.32,3.904-14.784,9.888s-1.088,12.864,3.456,17.44l128,128C247.808,382.432,251.904,384,256,384
			s8.192-1.568,11.328-4.672l128-128C399.904,246.752,401.28,239.872,398.784,233.888z M256,345.376L166.624,256H208
			c8.832,0,16-7.168,16-16V32h64v208c0,8.832,7.168,16,16,16h41.376L256,345.376z"/>
	</g>
</g>
<g>
	<g>
		<path d="M464,320h-64c-8.832,0-16,7.168-16,16v80H128v-80c0-8.832-7.168-16-16-16H48c-8.832,0-16,7.168-16,16v128
			c0,26.464,21.536,48,48,48h352c26.464,0,48-21.536,48-48V336C480,327.168,472.832,320,464,320z M448,464c0,8.8-7.2,16-16,16H80
			c-8.8,0-16-7.2-16-16V352h32v80c0,8.832,7.168,16,16,16h288c8.832,0,16-7.168,16-16v-80h32V464z"/>
	</g>
</g>
<g>
</g>
<g>
</g>
<g>
</g>
<g>
</g>
<g>
</g>
<g>
</g>
<g>
</g>
<g>
</g>
<g>
</g>
<g>
</g>
<g>
</g>
<g>
</g>
<g>
</g>
<g>
</g>
<g>
</g>
</svg>
