<?xml version="1.0" encoding="iso-8859-1"?>
<!-- Generator: Adobe Illustrator 19.0.0, SVG Export Plug-In . SVG Version: 6.00 Build 0)  -->
<svg version="1.1" id="Capa_1" xmlns="http://www.w3.org/2000/svg" xmlns:xlink="http://www.w3.org/1999/xlink" x="0px" y="0px"
	 viewBox="0 0 512 512" style="enable-background:new 0 0 512 512;" xml:space="preserve">
<g>
	<g>
		<path d="M417.12,226.88l-42.24-48c-5.824-6.656-15.904-7.296-22.528-1.472L304,219.744V16c0-8.832-7.168-16-16-16h-64
			c-8.832,0-16,7.168-16,16v203.744l-48.352-42.336c-6.624-5.824-16.704-5.184-22.528,1.472l-42.24,48
			c-2.816,3.2-4.256,7.328-3.968,11.584c0.288,4.256,2.208,8.224,5.44,11.008l149.12,130.56C248.48,382.688,252.256,384,256,384
			s7.52-1.312,10.528-3.968l149.12-130.56c3.232-2.784,5.152-6.752,5.44-11.008C421.376,234.208,419.936,230.048,417.12,226.88z
			 M256,346.72L129.504,235.968L150.592,212l62.88,55.072c4.704,4.192,11.488,5.184,17.12,2.528
			c5.728-2.592,9.408-8.288,9.408-14.56V32h32v223.04c0,6.272,3.68,11.968,9.408,14.56c5.632,2.624,12.416,1.664,17.12-2.528
			L361.408,212l21.088,23.968L256,346.72z"/>
	</g>
</g>
<g>
	<g>
		<path d="M448,416H64c-8.832,0-16,7.168-16,16v64c0,8.832,7.168,16,16,16h384c8.832,0,16-7.168,16-16v-64
			C464,423.168,456.832,416,448,416z M432,480H80v-32h352V480z"/>
	</g>
</g>
<g>
</g>
<g>
</g>
<g>
</g>
<g>
</g>
<g>
</g>
<g>
</g>
<g>
</g>
<g>
</g>
<g>
</g>
<g>
</g>
<g>
</g>
<g>
</g>
<g>
</g>
<g>
</g>
<g>
</g>
</svg>
