<?xml version="1.0" encoding="iso-8859-1"?>
<!-- Generator: Adobe Illustrator 19.0.0, SVG Export Plug-In . SVG Version: 6.00 Build 0)  -->
<svg version="1.1" id="Capa_1" xmlns="http://www.w3.org/2000/svg" xmlns:xlink="http://www.w3.org/1999/xlink" x="0px" y="0px"
	 viewBox="0 0 512 512" style="enable-background:new 0 0 512 512;" xml:space="preserve">
<g>
	<g>
		<path d="M464,192H351.968c-8.832,0-16,7.168-16,16c0,8.832,7.168,16,16,16H464v256H48V224h112c8.832,0,16-7.168,16-16
			c0-8.832-7.168-16-16-16H48c-17.664,0-32,14.336-32,32v256c0,17.664,14.336,32,32,32h416c17.664,0,32-14.336,32-32V224
			C496,206.336,481.664,192,464,192z"/>
	</g>
</g>
<g>
	<g>
		<path d="M366.784,265.888C364.288,259.904,358.464,256,352,256h-48V16c0-8.832-7.168-16-16-16h-64c-8.832,0-16,7.168-16,16v240
			h-48c-6.464,0-12.32,3.904-14.784,9.888s-1.088,12.864,3.456,17.44l96,96C247.808,382.432,251.904,384,256,384
			s8.192-1.568,11.328-4.672l96-96C367.904,278.752,369.28,271.872,366.784,265.888z M256,345.376L198.624,288H224
			c8.832,0,16-7.168,16-16V32h32v240c0,8.832,7.168,16,16,16h25.376L256,345.376z"/>
	</g>
</g>
<g>
</g>
<g>
</g>
<g>
</g>
<g>
</g>
<g>
</g>
<g>
</g>
<g>
</g>
<g>
</g>
<g>
</g>
<g>
</g>
<g>
</g>
<g>
</g>
<g>
</g>
<g>
</g>
<g>
</g>
</svg>
