<?xml version="1.0" encoding="iso-8859-1"?>
<!-- Generator: Adobe Illustrator 19.0.0, SVG Export Plug-In . SVG Version: 6.00 Build 0)  -->
<svg version="1.1" id="Capa_1" xmlns="http://www.w3.org/2000/svg" xmlns:xlink="http://www.w3.org/1999/xlink" x="0px" y="0px"
	 viewBox="0 0 512 512" style="enable-background:new 0 0 512 512;" xml:space="preserve">
<g>
	<g>
		<path d="M506.88,244.289l-224-208c-4.64-4.352-11.456-5.504-17.28-2.944c-5.824,2.528-9.6,8.288-9.6,14.656v118.72
			c0,4.448,1.856,8.672,5.088,11.712l83.424,77.568l-83.392,77.568c-3.264,3.04-5.12,7.264-5.12,11.712v118.72
			c0,6.368,3.776,12.128,9.6,14.656c2.048,0.896,4.256,1.344,6.4,1.344c3.968,0,7.872-1.472,10.88-4.288l224-208
			c3.264-3.008,5.12-7.264,5.12-11.712S510.144,247.297,506.88,244.289z M288,427.329v-75.072l90.912-84.544
			c3.232-3.04,5.088-7.264,5.088-11.712s-1.856-8.672-5.088-11.712L288,159.745V84.673l184.512,171.328L288,427.329z"/>
	</g>
</g>
<g>
	<g>
		<path d="M250.88,244.289l-224-208c-4.64-4.352-11.424-5.504-17.28-2.944C3.776,35.873,0,41.633,0,48.001v118.72
			c0,4.448,1.856,8.672,5.088,11.712l83.424,77.568L5.12,333.569C1.856,336.609,0,340.833,0,345.281v118.72
			c0,6.368,3.776,12.128,9.6,14.656c2.048,0.896,4.256,1.344,6.4,1.344c3.968,0,7.872-1.472,10.88-4.288l224-208
			c3.264-3.008,5.12-7.264,5.12-11.712S254.144,247.297,250.88,244.289z M32,427.329v-75.072l90.912-84.544
			c3.232-3.04,5.088-7.264,5.088-11.712s-1.856-8.672-5.088-11.712L32,159.745V84.673l184.512,171.328L32,427.329z"/>
	</g>
</g>
<g>
</g>
<g>
</g>
<g>
</g>
<g>
</g>
<g>
</g>
<g>
</g>
<g>
</g>
<g>
</g>
<g>
</g>
<g>
</g>
<g>
</g>
<g>
</g>
<g>
</g>
<g>
</g>
<g>
</g>
</svg>
