<?xml version="1.0" encoding="iso-8859-1"?>
<!-- Generator: Adobe Illustrator 19.0.0, SVG Export Plug-In . SVG Version: 6.00 Build 0)  -->
<svg version="1.1" id="Capa_1" xmlns="http://www.w3.org/2000/svg" xmlns:xlink="http://www.w3.org/1999/xlink" x="0px" y="0px"
	 viewBox="0 0 512.024 512.024" style="enable-background:new 0 0 512.024 512.024;" xml:space="preserve">
<g>
	<g>
		<path d="M506.409,259.864l-112-96c-5.984-5.152-14.848-5.152-20.8,0l-112,96c-5.088,4.352-6.944,11.424-4.608,17.696
			c2.336,6.304,8.32,10.464,15.008,10.464h48v32c0,35.296-28.704,64-64,64c-35.296,0-64-28.704-64-64v-192h48
			c6.688,0,12.672-4.16,15.008-10.464c2.336-6.272,0.512-13.344-4.608-17.696l-112-96c-5.984-5.152-14.848-5.152-20.8,0l-112,96
			c-5.088,4.352-6.944,11.424-4.608,17.696c2.336,6.304,8.32,10.464,15.008,10.464h48v192c0,105.888,86.112,192,192,192
			s192-86.112,192-192v-32h48c6.688,0,12.672-4.16,15.008-10.464C513.353,271.288,511.529,264.216,506.409,259.864z
			 M432.009,256.024c-8.832,0-16,7.168-16,16v48c0,88.224-71.776,160-160,160s-160-71.776-160-160v-208c0-8.832-7.168-16-16-16
			H59.273l68.736-58.912l68.736,58.912h-20.736c-8.832,0-16,7.168-16,16v208c0,52.928,43.072,96,96,96c52.928,0,96-43.072,96-96v-48
			c0-8.832-7.168-16-16-16h-20.736l68.736-58.912l68.736,58.912H432.009z"/>
	</g>
</g>
<g>
</g>
<g>
</g>
<g>
</g>
<g>
</g>
<g>
</g>
<g>
</g>
<g>
</g>
<g>
</g>
<g>
</g>
<g>
</g>
<g>
</g>
<g>
</g>
<g>
</g>
<g>
</g>
<g>
</g>
</svg>
