<?xml version="1.0" encoding="iso-8859-1"?>
<!-- Generator: Adobe Illustrator 19.0.0, SVG Export Plug-In . SVG Version: 6.00 Build 0)  -->
<svg version="1.1" id="Capa_1" xmlns="http://www.w3.org/2000/svg" xmlns:xlink="http://www.w3.org/1999/xlink" x="0px" y="0px"
	 viewBox="0 0 479.99 479.99" style="enable-background:new 0 0 479.99 479.99;" xml:space="preserve">
<g>
	<g>
		<path d="M476.606,230.168l-150.016-192c-2.656-3.392-6.56-5.568-10.848-6.048c-4.288-0.448-8.576,0.768-11.904,3.52
			l-73.984,60.576c-6.72,5.504-7.808,15.36-2.464,22.208l94.944,121.568L227.39,361.496c-5.344,6.848-4.256,16.704,2.464,22.24
			l73.984,60.64c2.88,2.368,6.464,3.616,10.144,3.616c0.608,0,1.184-0.032,1.76-0.096c4.288-0.48,8.192-2.656,10.848-6.048
			L476.606,249.88C481.118,244.088,481.118,235.96,476.606,230.168z M311.454,409.24l-49.216-40.352l93.024-119.04
			c4.512-5.792,4.512-13.92,0-19.712l-93.024-119.072l49.216-40.32L443.71,239.992L311.454,409.24z"/>
	</g>
</g>
<g>
	<g>
		<path d="M252.606,230.168l-150.016-192c-2.656-3.424-6.56-5.6-10.848-6.08c-4.32-0.448-8.544,0.768-11.904,3.52L5.854,96.216
			c-6.72,5.504-7.808,15.36-2.464,22.208l94.944,121.568L3.39,361.496c-5.344,6.88-4.256,16.736,2.464,22.24l73.984,60.64
			c2.88,2.336,6.464,3.616,10.144,3.616c0.608,0,1.184-0.032,1.76-0.096c4.288-0.48,8.192-2.656,10.848-6.048L252.606,249.88
			C257.118,244.088,257.118,235.96,252.606,230.168z M87.454,409.24l-49.216-40.352l93.024-119.008
			c4.512-5.792,4.512-13.92,0-19.712L38.238,111.064l49.216-40.32L219.71,239.992L87.454,409.24z"/>
	</g>
</g>
<g>
</g>
<g>
</g>
<g>
</g>
<g>
</g>
<g>
</g>
<g>
</g>
<g>
</g>
<g>
</g>
<g>
</g>
<g>
</g>
<g>
</g>
<g>
</g>
<g>
</g>
<g>
</g>
<g>
</g>
</svg>
