<?xml version="1.0" encoding="iso-8859-1"?>
<!-- Generator: Adobe Illustrator 19.0.0, SVG Export Plug-In . SVG Version: 6.00 Build 0)  -->
<svg version="1.1" id="Capa_1" xmlns="http://www.w3.org/2000/svg" xmlns:xlink="http://www.w3.org/1999/xlink" x="0px" y="0px"
	 viewBox="0 0 512 512" style="enable-background:new 0 0 512 512;" xml:space="preserve">
<g>
	<g>
		<path d="M256,112c-26.464,0-48,21.536-48,48s21.536,48,48,48s48-21.536,48-48S282.464,112,256,112z M256,176
			c-8.832,0-16-7.2-16-16s7.168-16,16-16c8.832,0,16,7.2,16,16S264.832,176,256,176z"/>
	</g>
</g>
<g>
	<g>
		<path d="M144,208c-26.464,0-48,21.536-48,48s21.536,48,48,48s48-21.536,48-48S170.464,208,144,208z M144,272
			c-8.832,0-16-7.2-16-16s7.168-16,16-16c8.832,0,16,7.2,16,16S152.832,272,144,272z"/>
	</g>
</g>
<g>
	<g>
		<path d="M368,208c-26.464,0-48,21.536-48,48s21.536,48,48,48s48-21.536,48-48S394.464,208,368,208z M368,272
			c-8.832,0-16-7.2-16-16s7.168-16,16-16c8.832,0,16,7.2,16,16S376.832,272,368,272z"/>
	</g>
</g>
<g>
	<g>
		<path d="M464,304c-26.464,0-48,21.536-48,48s21.536,48,48,48s48-21.536,48-48S490.464,304,464,304z M464,368
			c-8.832,0-16-7.2-16-16s7.168-16,16-16c8.832,0,16,7.2,16,16S472.832,368,464,368z"/>
	</g>
</g>
<g>
	<g>
		<path d="M48,304c-26.464,0-48,21.536-48,48s21.536,48,48,48s48-21.536,48-48S74.464,304,48,304z M48,368c-8.832,0-16-7.2-16-16
			s7.168-16,16-16c8.832,0,16,7.2,16,16S56.832,368,48,368z"/>
	</g>
</g>
<g>
</g>
<g>
</g>
<g>
</g>
<g>
</g>
<g>
</g>
<g>
</g>
<g>
</g>
<g>
</g>
<g>
</g>
<g>
</g>
<g>
</g>
<g>
</g>
<g>
</g>
<g>
</g>
<g>
</g>
</svg>
