<?xml version="1.0" encoding="iso-8859-1"?>
<!-- Generator: Adobe Illustrator 19.0.0, SVG Export Plug-In . SVG Version: 6.00 Build 0)  -->
<svg version="1.1" id="Capa_1" xmlns="http://www.w3.org/2000/svg" xmlns:xlink="http://www.w3.org/1999/xlink" x="0px" y="0px"
	 viewBox="0 0 448.008 448.008" style="enable-background:new 0 0 448.008 448.008;" xml:space="preserve">
<g>
	<g>
		<path d="M208.008,224.004h-128c-6.464,0-12.288,3.872-14.752,9.856c-2.464,5.984-1.152,12.832,3.392,17.44l30.048,30.272
			L4.68,375.588c-6.24,6.24-6.24,16.384,0,22.624l45.12,45.12c3.136,3.104,7.232,4.672,11.328,4.672s8.192-1.568,11.328-4.672
			l94.016-94.016l30.272,30.016c4.608,4.576,11.456,5.92,17.408,3.424c5.952-2.464,9.856-8.288,9.856-14.752v-128
			C224.008,231.172,216.84,224.004,208.008,224.004z M192.008,329.572l-14.336-14.176c-6.24-6.208-16.352-6.176-22.592,0.032
			L61.128,409.38l-22.496-22.496l93.984-93.984c6.24-6.208,6.24-16.352,0.032-22.592l-14.208-14.304h73.568V329.572z"/>
	</g>
</g>
<g>
	<g>
		<path d="M432.008,0.004h-192c-8.832,0-16,7.168-16,16v192c0,8.832,7.168,16,16,16h192c8.832,0,16-7.168,16-16v-192
			C448.008,7.172,440.84,0.004,432.008,0.004z M416.008,192.004h-160v-160h160V192.004z"/>
	</g>
</g>
<g>
</g>
<g>
</g>
<g>
</g>
<g>
</g>
<g>
</g>
<g>
</g>
<g>
</g>
<g>
</g>
<g>
</g>
<g>
</g>
<g>
</g>
<g>
</g>
<g>
</g>
<g>
</g>
<g>
</g>
</svg>
