<?xml version="1.0" encoding="iso-8859-1"?>
<!-- Generator: Adobe Illustrator 19.0.0, SVG Export Plug-In . SVG Version: 6.00 Build 0)  -->
<svg version="1.1" id="Capa_1" xmlns="http://www.w3.org/2000/svg" xmlns:xlink="http://www.w3.org/1999/xlink" x="0px" y="0px"
	 viewBox="0 0 512 512" style="enable-background:new 0 0 512 512;" xml:space="preserve">
<g>
	<g>
		<path d="M497.952,127.19L384.8,14.038c-18.72-18.72-49.184-18.688-67.872,0c-9.056,9.056-14.048,21.12-14.048,33.952
			c0,12.8,4.992,24.864,14.048,33.952l31.68,31.68C153.376,131.51,0,296.182,0,495.99c0,8.832,7.168,16,16,16h64
			c8.832,0,16-7.168,16-16c0-146.208,109.536-267.328,250.848-285.6l-29.952,29.92c-9.056,9.056-14.048,21.12-14.048,33.92
			c0,12.832,4.992,24.896,14.048,33.952c9.088,9.088,21.088,14.048,33.76,14.048c13.792-0.608,25.056-4.928,34.112-14.016
			L497.92,195.062c9.088-9.056,14.08-21.12,14.08-33.92S507.008,136.278,497.952,127.19z M475.328,172.438L362.176,285.59
			c-3.008,3.008-7.008,4.672-11.36,4.672c-3.328-0.576-8.192-1.632-11.264-4.704c-3.04-3.008-4.672-7.008-4.672-11.296
			c0-4.256,1.664-8.256,4.672-11.296l59.648-59.648c4.576-4.576,5.952-11.456,3.456-17.44c-2.464-5.984-8.32-9.888-14.784-9.888H384
			c-171.072,0-311.264,134.944-319.616,304H32.352c8.416-186.688,162.976-336,353.248-336c6.464,0,12.32-3.904,14.784-9.888
			c2.496-5.984,1.12-12.864-3.456-17.44l-57.344-57.376c-3.008-3.04-4.672-7.04-4.672-11.328c0-4.288,1.664-8.288,4.672-11.328
			c6.24-6.24,16.384-6.24,22.624,0l113.12,113.152c2.976,3.008,4.672,7.136,4.672,11.36S478.304,169.462,475.328,172.438z"/>
	</g>
</g>
<g>
</g>
<g>
</g>
<g>
</g>
<g>
</g>
<g>
</g>
<g>
</g>
<g>
</g>
<g>
</g>
<g>
</g>
<g>
</g>
<g>
</g>
<g>
</g>
<g>
</g>
<g>
</g>
<g>
</g>
</svg>
