<?xml version="1.0" encoding="iso-8859-1"?>
<!-- Generator: Adobe Illustrator 19.0.0, SVG Export Plug-In . SVG Version: 6.00 Build 0)  -->
<svg version="1.1" id="Capa_1" xmlns="http://www.w3.org/2000/svg" xmlns:xlink="http://www.w3.org/1999/xlink" x="0px" y="0px"
	 viewBox="0 0 512.008 512.008" style="enable-background:new 0 0 512.008 512.008;" xml:space="preserve">
<g>
	<g>
		<path d="M507.328,145.06L371.552,9.284c-6.016-6.016-16.64-6.016-22.624,0l-45.248,45.28c-6.24,6.24-6.24,16.384,0,22.624
			l33.28,33.28C145.344,133.508,0,294.468,0,491.236c0,8.832,7.168,16,16,16h64c8.832,0,16-7.168,16-16
			C96,349.988,196.096,233.22,330.784,208.42l-27.136,27.136c-6.24,6.24-6.24,16.384,0,22.624l45.248,45.28
			c3.008,3.008,7.072,4.672,11.328,4.672c4.256,0,8.32-1.696,11.328-4.672l135.776-135.776
			C513.568,161.444,513.568,151.3,507.328,145.06z M360.224,269.508L337.6,246.884l47.84-47.84c4.64-4.64,5.984-11.648,3.36-17.664
			c-2.624-6.016-8.672-10.272-15.2-9.632c-168.224,5.44-301.152,137.408-309.216,303.488H32.352
			c8.096-183.872,154.976-329.888,341.056-335.424c6.368-0.192,12.032-4.16,14.4-10.08c2.368-5.952,0.96-12.704-3.552-17.216
			l-46.624-46.624l22.624-22.656l113.12,113.152L360.224,269.508z"/>
	</g>
</g>
<g>
</g>
<g>
</g>
<g>
</g>
<g>
</g>
<g>
</g>
<g>
</g>
<g>
</g>
<g>
</g>
<g>
</g>
<g>
</g>
<g>
</g>
<g>
</g>
<g>
</g>
<g>
</g>
<g>
</g>
</svg>
