<?xml version="1.0" encoding="iso-8859-1"?>
<!-- Generator: Adobe Illustrator 19.0.0, SVG Export Plug-In . SVG Version: 6.00 Build 0)  -->
<svg version="1.1" id="Capa_1" xmlns="http://www.w3.org/2000/svg" xmlns:xlink="http://www.w3.org/1999/xlink" x="0px" y="0px"
	 viewBox="0 0 512 512" style="enable-background:new 0 0 512 512;" xml:space="preserve">
<g>
	<g>
		<path d="M502.432,65.347c-5.76-2.528-12.576-1.44-17.248,2.88l-192,176c-3.296,3.04-5.184,7.264-5.184,11.776
			c0,4.512,1.888,8.736,5.184,11.776l192,176c3.008,2.784,6.88,4.224,10.816,4.224c2.176,0,4.384-0.448,6.432-1.344
			c5.824-2.56,9.568-8.32,9.568-14.656v-352C512,73.667,508.256,67.907,502.432,65.347z M480,395.619L327.68,256.003L480,116.387
			V395.619z"/>
	</g>
</g>
<g>
	<g>
		<path d="M218.816,244.227l-192-176c-4.672-4.352-11.488-5.408-17.248-2.88C3.744,67.907,0,73.667,0,80.003v352
			c0,6.336,3.744,12.096,9.568,14.656c2.048,0.896,4.256,1.344,6.432,1.344c3.936,0,7.808-1.44,10.816-4.224l192-176
			c3.296-3.04,5.184-7.264,5.184-11.776C224,251.491,222.112,247.267,218.816,244.227z M32,395.619V116.387l152.32,139.616
			L32,395.619z"/>
	</g>
</g>
<g>
</g>
<g>
</g>
<g>
</g>
<g>
</g>
<g>
</g>
<g>
</g>
<g>
</g>
<g>
</g>
<g>
</g>
<g>
</g>
<g>
</g>
<g>
</g>
<g>
</g>
<g>
</g>
<g>
</g>
</svg>
