<?xml version="1.0" encoding="iso-8859-1"?>
<!-- Generator: Adobe Illustrator 19.0.0, SVG Export Plug-In . SVG Version: 6.00 Build 0)  -->
<svg version="1.1" id="Capa_1" xmlns="http://www.w3.org/2000/svg" xmlns:xlink="http://www.w3.org/1999/xlink" x="0px" y="0px"
	 viewBox="0 0 512 512" style="enable-background:new 0 0 512 512;" xml:space="preserve">
<g>
	<g>
		<path d="M230.112,145.216c-5.92-2.464-12.832-1.12-17.44,3.456l-96,96c-6.24,6.24-6.24,16.384,0,22.624l96,96
			C215.744,366.368,219.84,368,224,368c2.048,0,4.16-0.416,6.112-1.216C236.096,364.32,240,358.464,240,352V160
			C240,153.536,236.096,147.68,230.112,145.216z M208,313.376L150.624,256L208,198.624V313.376z"/>
	</g>
</g>
<g>
	<g>
		<path d="M448,0c-8.832,0-16,7.168-16,16v480c0,8.832,7.168,16,16,16c8.832,0,16-7.168,16-16V16C464,7.168,456.832,0,448,0z"/>
	</g>
</g>
<g>
	<g>
		<path d="M395.328,244.704l-96-96c-4.576-4.576-11.52-5.92-17.44-3.488C275.904,147.68,272,153.536,272,160v192
			c0,6.464,3.904,12.32,9.888,14.784c1.952,0.8,4.064,1.216,6.112,1.216c4.16,0,8.256-1.632,11.328-4.672l96-96
			C401.568,261.088,401.568,250.944,395.328,244.704z M304,313.376V198.624L361.376,256L304,313.376z"/>
	</g>
</g>
<g>
	<g>
		<path d="M64,0c-8.832,0-16,7.168-16,16v480c0,8.832,7.168,16,16,16c8.832,0,16-7.168,16-16V16C80,7.168,72.832,0,64,0z"/>
	</g>
</g>
<g>
</g>
<g>
</g>
<g>
</g>
<g>
</g>
<g>
</g>
<g>
</g>
<g>
</g>
<g>
</g>
<g>
</g>
<g>
</g>
<g>
</g>
<g>
</g>
<g>
</g>
<g>
</g>
<g>
</g>
</svg>
