<?xml version="1.0" encoding="iso-8859-1"?>
<!-- Generator: Adobe Illustrator 19.0.0, SVG Export Plug-In . SVG Version: 6.00 Build 0)  -->
<svg version="1.1" id="Capa_1" xmlns="http://www.w3.org/2000/svg" xmlns:xlink="http://www.w3.org/1999/xlink" x="0px" y="0px"
	 viewBox="0 0 512 512" style="enable-background:new 0 0 512 512;" xml:space="preserve">
<g>
	<g>
		<path d="M253.603,0C132.515,0,27.011,86.112,2.723,204.8c-0.96,4.704,0.224,9.6,3.296,13.312C9.027,221.856,13.603,224,18.403,224
			h251.2c8.832,0,16-7.456,16-16.32v-40.864l89.344,88.896l-89.344,89.344V304c0-8.832-7.168-16-16-16h-251.2
			c-4.8,0-9.376,2.144-12.384,5.888c-3.072,3.712-4.256,8.608-3.296,13.312C27.011,425.888,132.515,512,253.603,512
			c141.152,0,256-114.848,256-256S394.755,0,253.603,0z M253.603,480c-99.296,0-186.624-66.208-214.688-160h214.688v63.68
			c0,6.464,3.904,12.32,9.888,14.784c5.984,2.496,12.864,1.12,17.44-3.456l128-128c2.976-3.008,4.672-7.072,4.672-11.328
			c0-4.256-1.696-8.32-4.704-11.328l-128-127.36c-4.576-4.576-11.456-5.856-17.44-3.456c-5.952,2.464-9.856,8.32-9.856,14.784V192
			H38.915C66.979,98.208,154.307,32,253.603,32c123.52,0,224,100.48,224,224S377.123,480,253.603,480z"/>
	</g>
</g>
<g>
</g>
<g>
</g>
<g>
</g>
<g>
</g>
<g>
</g>
<g>
</g>
<g>
</g>
<g>
</g>
<g>
</g>
<g>
</g>
<g>
</g>
<g>
</g>
<g>
</g>
<g>
</g>
<g>
</g>
</svg>
