<?xml version="1.0" encoding="iso-8859-1"?>
<!-- Generator: Adobe Illustrator 19.0.0, SVG Export Plug-In . SVG Version: 6.00 Build 0)  -->
<svg version="1.1" id="Capa_1" xmlns="http://www.w3.org/2000/svg" xmlns:xlink="http://www.w3.org/1999/xlink" x="0px" y="0px"
	 viewBox="0 0 448.003 448.003" style="enable-background:new 0 0 448.003 448.003;" xml:space="preserve">
<g>
	<g>
		<path d="M442.883,212.29l-224-208c-2.944-2.752-6.848-4.288-10.88-4.288h-192c-6.592,0-12.48,4.032-14.88,10.144
			s-0.832,13.12,4,17.568l211.36,196.288L5.123,420.29c-4.832,4.448-6.432,11.424-4,17.568c2.4,6.112,8.288,10.144,14.88,10.144h192
			c4.032,0,7.936-1.536,10.88-4.288l224-208c3.264-3.04,5.12-7.264,5.12-11.712S446.147,215.298,442.883,212.29z M201.699,416.002
			H56.739l194.144-180.288c3.264-3.04,5.12-7.264,5.12-11.712s-1.856-8.704-5.12-11.744L56.739,32.002h144.96l206.752,192
			L201.699,416.002z"/>
	</g>
</g>
<g>
</g>
<g>
</g>
<g>
</g>
<g>
</g>
<g>
</g>
<g>
</g>
<g>
</g>
<g>
</g>
<g>
</g>
<g>
</g>
<g>
</g>
<g>
</g>
<g>
</g>
<g>
</g>
<g>
</g>
</svg>
