<?xml version="1.0" encoding="iso-8859-1"?>
<!-- Generator: Adobe Illustrator 19.0.0, SVG Export Plug-In . SVG Version: 6.00 Build 0)  -->
<svg version="1.1" id="Capa_1" xmlns="http://www.w3.org/2000/svg" xmlns:xlink="http://www.w3.org/1999/xlink" x="0px" y="0px"
	 viewBox="0 0 511.984 511.984" style="enable-background:new 0 0 511.984 511.984;" xml:space="preserve">
<g>
	<g>
		<path d="M507.736,245.147l-192-208c-4.48-4.832-11.52-6.464-17.568-4.064c-6.144,2.4-10.176,8.32-10.176,14.912v121.28
			c0,4.032,1.504,7.904,4.256,10.848l69.952,75.872l-69.984,75.872c-2.72,2.944-4.224,6.816-4.224,10.848v121.28
			c0,6.592,4.032,12.512,10.176,14.912c1.888,0.736,3.84,1.088,5.824,1.088c4.384,0,8.672-1.824,11.744-5.152l192-208
			C513.4,260.731,513.4,251.291,507.736,245.147z M319.992,423.067v-74.08l75.744-82.112c5.664-6.112,5.664-15.552,0-21.696
			l-75.744-82.144V88.923L474.2,255.995L319.992,423.067z"/>
	</g>
</g>
<g>
	<g>
		<path d="M223.992,169.275V47.995c0-6.592-4.032-12.512-10.176-14.912c-6.08-2.4-13.088-0.768-17.568,4.064l-192,208
			c-5.664,6.112-5.664,15.552,0,21.696l192,208c3.072,3.328,7.36,5.152,11.744,5.152c1.984,0,3.936-0.352,5.824-1.088
			c6.144-2.4,10.176-8.32,10.176-14.912v-121.28c0-4.032-1.504-7.904-4.256-10.848l-69.952-75.872l69.984-75.872
			C222.488,177.179,223.992,173.307,223.992,169.275z M191.992,163.035l-75.744,82.112c-5.664,6.112-5.664,15.552,0,21.696
			l75.744,82.112v74.08L37.784,255.995L191.992,88.923V163.035z"/>
	</g>
</g>
<g>
</g>
<g>
</g>
<g>
</g>
<g>
</g>
<g>
</g>
<g>
</g>
<g>
</g>
<g>
</g>
<g>
</g>
<g>
</g>
<g>
</g>
<g>
</g>
<g>
</g>
<g>
</g>
<g>
</g>
</svg>
