<?xml version="1.0" encoding="iso-8859-1"?>
<!-- Generator: Adobe Illustrator 19.0.0, SVG Export Plug-In . SVG Version: 6.00 Build 0)  -->
<svg version="1.1" id="Capa_1" xmlns="http://www.w3.org/2000/svg" xmlns:xlink="http://www.w3.org/1999/xlink" x="0px" y="0px"
	 viewBox="0 0 511.999 511.999" style="enable-background:new 0 0 511.999 511.999;" xml:space="preserve">
<g>
	<g>
		<path d="M507.751,245.123l-192-208c-4.48-4.864-11.488-6.4-17.568-4.032c-6.144,2.4-10.176,8.32-10.176,14.912v110.112
			L17.799,128.099c-5.824-0.512-11.84,2.08-15.168,7.136c-3.328,5.056-3.488,11.488-0.544,16.704l59.488,104.064L2.119,360.067
			c-2.976,5.248-2.784,11.68,0.512,16.704c3.328,5.024,9.344,7.84,15.168,7.136l270.208-30.016v110.112
			c0,6.592,4.032,12.512,10.176,14.912c1.888,0.736,3.84,1.088,5.824,1.088c4.384,0,8.672-1.792,11.744-5.152l192-208
			C513.415,260.707,513.415,251.267,507.751,245.123z M320.007,423.075v-87.072c0-4.544-1.952-8.896-5.344-11.936
			c-2.944-2.624-6.752-4.064-10.656-4.064c-0.608,0-1.184,0.032-1.792,0.096L45.511,348.643l48.416-84.704
			c2.784-4.928,2.784-10.944,0-15.872l-48.416-84.704l256.704,28.544c4.544,0.544,9.056-0.928,12.448-4
			c3.392-3.008,5.344-7.36,5.344-11.904V88.931l154.208,167.072L320.007,423.075z"/>
	</g>
</g>
<g>
</g>
<g>
</g>
<g>
</g>
<g>
</g>
<g>
</g>
<g>
</g>
<g>
</g>
<g>
</g>
<g>
</g>
<g>
</g>
<g>
</g>
<g>
</g>
<g>
</g>
<g>
</g>
<g>
</g>
</svg>
