<?xml version="1.0" encoding="iso-8859-1"?>
<!-- Generator: Adobe Illustrator 19.0.0, SVG Export Plug-In . SVG Version: 6.00 Build 0)  -->
<svg version="1.1" id="Capa_1" xmlns="http://www.w3.org/2000/svg" xmlns:xlink="http://www.w3.org/1999/xlink" x="0px" y="0px"
	 viewBox="0 0 512.015 512.015" style="enable-background:new 0 0 512.015 512.015;" xml:space="preserve">
<g>
	<g>
		<path d="M505.679,243.271l-189.536-144c-2.784-2.112-6.144-3.264-9.664-3.264H16.015c-6.88,0-12.96,4.384-15.168,10.88
			c-2.208,6.528,0,13.696,5.472,17.856l172.768,131.264L6.351,387.271c-5.472,4.16-7.68,11.328-5.472,17.856
			c2.176,6.496,8.256,10.88,15.136,10.88h290.464c3.488,0,6.88-1.152,9.664-3.264l189.536-144c4-3.008,6.336-7.744,6.336-12.736
			S509.679,246.279,505.679,243.271z M301.103,384.007h-237.6l151.712-115.264c4-3.008,6.336-7.744,6.336-12.736
			s-2.336-9.728-6.336-12.736L63.503,128.007h237.568l168.48,128L301.103,384.007z"/>
	</g>
</g>
<g>
</g>
<g>
</g>
<g>
</g>
<g>
</g>
<g>
</g>
<g>
</g>
<g>
</g>
<g>
</g>
<g>
</g>
<g>
</g>
<g>
</g>
<g>
</g>
<g>
</g>
<g>
</g>
<g>
</g>
</svg>
