<?xml version="1.0" encoding="iso-8859-1"?>
<!-- Generator: Adobe Illustrator 19.0.0, SVG Export Plug-In . SVG Version: 6.00 Build 0)  -->
<svg version="1.1" id="Capa_1" xmlns="http://www.w3.org/2000/svg" xmlns:xlink="http://www.w3.org/1999/xlink" x="0px" y="0px"
	 viewBox="0 0 512 512" style="enable-background:new 0 0 512 512;" xml:space="preserve">
<g>
	<g>
		<path d="M506.88,244.289l-224-208c-4.672-4.352-11.52-5.504-17.28-2.944c-5.824,2.528-9.6,8.288-9.6,14.656v112H16
			c-8.832,0-16,7.168-16,16v160c0,8.832,7.168,16,16,16h240v112c0,6.368,3.776,12.128,9.6,14.656c2.048,0.896,4.256,1.344,6.4,1.344
			c3.968,0,7.872-1.472,10.88-4.288l224-208c3.264-3.008,5.12-7.264,5.12-11.712S510.144,247.297,506.88,244.289z M288,427.329
			v-91.328c0-8.832-7.168-16-16-16H32v-128h240c8.832,0,16-7.168,16-16V84.673l184.48,171.328L288,427.329z"/>
	</g>
</g>
<g>
</g>
<g>
</g>
<g>
</g>
<g>
</g>
<g>
</g>
<g>
</g>
<g>
</g>
<g>
</g>
<g>
</g>
<g>
</g>
<g>
</g>
<g>
</g>
<g>
</g>
<g>
</g>
<g>
</g>
</svg>
