<?xml version="1.0" encoding="iso-8859-1"?>
<!-- Generator: Adobe Illustrator 19.0.0, SVG Export Plug-In . SVG Version: 6.00 Build 0)  -->
<svg version="1.1" id="Capa_1" xmlns="http://www.w3.org/2000/svg" xmlns:xlink="http://www.w3.org/1999/xlink" x="0px" y="0px"
	 viewBox="0 0 512.008 512.008" style="enable-background:new 0 0 512.008 512.008;" xml:space="preserve">
<g>
	<g>
		<path d="M342.411,268.776l-51.136-38.336c-12.064-9.152-19.264-23.52-19.264-38.432v-64h48c6.464,0,12.32-3.904,14.784-9.888
			c2.496-5.984,1.12-12.864-3.456-17.44l-96-96c-6.24-6.24-16.384-6.24-22.624,0l-96,96c-4.608,4.576-5.984,11.488-3.488,17.44
			c2.464,5.984,8.32,9.888,14.784,9.888h48v64c0,45.088,21.536,88.16,57.6,115.232l51.136,38.336
			c12.064,9.152,19.264,23.52,19.264,38.432v112c0,8.832,7.168,16,16,16h64c8.832,0,16-7.168,16-16v-112
			C400.011,338.92,378.475,295.848,342.411,268.776z M368.011,480.008h-32v-96c0-24.832-11.936-48.736-32-64l-51.2-38.4
			c-28.064-21.024-44.8-54.528-44.8-89.6v-80c0-8.832-7.168-16-16-16h-25.376l57.376-57.376l57.376,57.376h-25.376
			c-8.832,0-16,7.168-16,16v80c0,24.832,11.936,48.736,32,64l51.2,38.4c28.064,21.024,44.8,54.528,44.8,89.6V480.008z"/>
	</g>
</g>
<g>
</g>
<g>
</g>
<g>
</g>
<g>
</g>
<g>
</g>
<g>
</g>
<g>
</g>
<g>
</g>
<g>
</g>
<g>
</g>
<g>
</g>
<g>
</g>
<g>
</g>
<g>
</g>
<g>
</g>
</svg>
