<?xml version="1.0" encoding="iso-8859-1"?>
<!-- Generator: Adobe Illustrator 19.0.0, SVG Export Plug-In . SVG Version: 6.00 Build 0)  -->
<svg version="1.1" id="Capa_1" xmlns="http://www.w3.org/2000/svg" xmlns:xlink="http://www.w3.org/1999/xlink" x="0px" y="0px"
	 viewBox="0 0 512.027 512.027" style="enable-background:new 0 0 512.027 512.027;" xml:space="preserve">
<g>
	<g>
		<path d="M320.013,288.014h-64c-8.832,0-16,7.168-16,16c0,26.464-21.536,48-48,48c-20.864,0-38.656-13.376-45.28-32h29.28
			c6.464,0,12.32-3.904,14.784-9.888c2.496-5.952,1.12-12.864-3.456-17.44l-80-80c-6.24-6.24-16.384-6.24-22.624,0l-80,80
			c-4.608,4.576-5.984,11.488-3.488,17.44c2.464,5.984,8.32,9.888,14.784,9.888h32.896c7.968,71.904,69.12,128,143.104,128
			c79.392,0,144-64.608,144-144C336.013,295.182,328.845,288.014,320.013,288.014z M192.013,416.014c-61.76,0-112-50.24-112-112
			c0-8.832-7.168-16-16-16h-9.376l41.376-41.376l41.376,41.376h-9.376c-8.832,0-16,7.168-16,16c0,44.128,35.904,80,80,80
			c38.656,0,70.944-27.52,78.4-64h32.48C295.085,374.222,248.333,416.014,192.013,416.014z"/>
	</g>
</g>
<g>
	<g>
		<path d="M510.797,201.902c-2.464-5.984-8.32-9.888-14.784-9.888h-32.896c-8-71.904-69.12-128-143.104-128
			c-79.392,0-144,64.608-144,144c0,8.832,7.168,16,16,16h64c8.832,0,16-7.168,16-16c0-26.464,21.536-48,48-48
			c20.864,0,38.656,13.376,45.28,32h-29.28c-6.464,0-12.32,3.904-14.784,9.888c-2.496,5.984-1.12,12.864,3.456,17.44l80,80
			c3.136,3.104,7.232,4.672,11.328,4.672s8.192-1.568,11.328-4.672l80-80C511.917,214.766,513.293,207.886,510.797,201.902z
			 M416.013,265.39l-41.376-41.376h9.376c8.832,0,16-7.168,16-16c0-44.128-35.904-80-80-80c-38.656,0-70.944,27.52-78.4,64h-32.448
			c7.776-54.208,54.528-96,110.848-96c61.76,0,112,50.24,112,112c0,8.832,7.168,16,16,16h9.376L416.013,265.39z"/>
	</g>
</g>
<g>
</g>
<g>
</g>
<g>
</g>
<g>
</g>
<g>
</g>
<g>
</g>
<g>
</g>
<g>
</g>
<g>
</g>
<g>
</g>
<g>
</g>
<g>
</g>
<g>
</g>
<g>
</g>
<g>
</g>
</svg>
