<?xml version="1.0" encoding="iso-8859-1"?>
<!-- Generator: Adobe Illustrator 19.0.0, SVG Export Plug-In . SVG Version: 6.00 Build 0)  -->
<svg version="1.1" id="Capa_1" xmlns="http://www.w3.org/2000/svg" xmlns:xlink="http://www.w3.org/1999/xlink" x="0px" y="0px"
	 viewBox="0 0 512 512" style="enable-background:new 0 0 512 512;" xml:space="preserve">
<g>
	<g>
		<path d="M507.968,245.359l-128-144c-4.416-4.96-11.424-6.656-17.664-4.32C356.096,99.375,352,105.327,352,111.983v64H160v-64
			c0-6.656-4.096-12.608-10.304-14.944c-6.144-2.336-13.216-0.64-17.664,4.32l-128,144c-5.376,6.048-5.376,15.2,0,21.248l128,144
			c4.448,4.992,11.52,6.72,17.664,4.32c6.208-2.336,10.304-8.288,10.304-14.944v-64h192v64c0,6.656,4.096,12.608,10.304,14.944
			c1.856,0.704,3.776,1.056,5.696,1.056c4.48,0,8.864-1.888,11.968-5.376l128-144C513.344,260.559,513.344,251.407,507.968,245.359z
			 M384,357.903v-37.92c0-8.832-7.168-16-16-16H144c-8.832,0-16,7.168-16,16v37.92l-90.592-101.92L128,154.063v37.92
			c0,8.832,7.168,16,16,16h224c8.832,0,16-7.168,16-16v-37.92l90.592,101.92L384,357.903z"/>
	</g>
</g>
<g>
</g>
<g>
</g>
<g>
</g>
<g>
</g>
<g>
</g>
<g>
</g>
<g>
</g>
<g>
</g>
<g>
</g>
<g>
</g>
<g>
</g>
<g>
</g>
<g>
</g>
<g>
</g>
<g>
</g>
</svg>
