<?xml version="1.0" encoding="iso-8859-1"?>
<!-- Generator: Adobe Illustrator 19.0.0, SVG Export Plug-In . SVG Version: 6.00 Build 0)  -->
<svg version="1.1" id="Capa_1" xmlns="http://www.w3.org/2000/svg" xmlns:xlink="http://www.w3.org/1999/xlink" x="0px" y="0px"
	 viewBox="0 0 512.008 512.008" style="enable-background:new 0 0 512.008 512.008;" xml:space="preserve">
<g>
	<g>
		<path d="M507.904,245.296l-172.8-191.968c-5.92-6.592-16.032-7.168-22.592-1.216l-71.36,64c-6.592,5.888-7.136,16-1.248,22.592
			l47.808,53.312H16c-8.832,0-16,7.168-16,16v96c0,8.832,7.168,16,16,16h271.712l-47.776,53.344
			c-5.888,6.592-5.344,16.672,1.248,22.592l71.36,64c3.04,2.72,6.848,4.064,10.656,4.064c4.384,0,8.736-1.792,11.904-5.312
			l172.8-192C513.376,260.624,513.376,251.376,507.904,245.296z M322.016,425.424l-47.552-42.656l60.992-68.096
			c4.192-4.704,5.28-11.424,2.688-17.216c-2.592-5.728-8.32-9.44-14.624-9.44H32v-64h291.52c6.304,0,12.032-3.712,14.624-9.472
			c2.592-5.76,1.504-12.512-2.688-17.216l-61.024-68.064l47.552-42.656l152.48,169.408L322.016,425.424z"/>
	</g>
</g>
<g>
</g>
<g>
</g>
<g>
</g>
<g>
</g>
<g>
</g>
<g>
</g>
<g>
</g>
<g>
</g>
<g>
</g>
<g>
</g>
<g>
</g>
<g>
</g>
<g>
</g>
<g>
</g>
<g>
</g>
</svg>
